<?xml version="1.0" encoding="UTF-8"?><svg xmlns="http://www.w3.org/2000/svg" xmlns:xlink="http://www.w3.org/1999/xlink" fill-opacity="1" color-rendering="auto" color-interpolation="auto" text-rendering="auto" stroke="black" stroke-linecap="square" width="1546" stroke-miterlimit="10" shape-rendering="auto" stroke-opacity="1" fill="black" stroke-dasharray="none" font-weight="normal" stroke-width="1" height="152" font-family="'Dialog'" font-style="normal" stroke-linejoin="miter" font-size="12px" stroke-dashoffset="0" image-rendering="auto">
  <!--Generated by ySVG 2.5-->
  <defs id="genericDefs"/>
  <g>
    <defs id="defs1">
      <clipPath clipPathUnits="userSpaceOnUse" id="clipPath1">
        <path d="M0 0 L1546 0 L1546 152 L0 152 L0 0 Z"/>
      </clipPath>
      <clipPath clipPathUnits="userSpaceOnUse" id="clipPath2">
        <path d="M51 -98 L824 -98 L824 -22 L51 -22 L51 -98 Z"/>
      </clipPath>
    </defs>
    <g fill="white" text-rendering="geometricPrecision" shape-rendering="geometricPrecision" transform="scale(2,2) translate(-51,98)" stroke="white">
      <rect x="51" width="773" height="76" y="-98" clip-path="url(#clipPath2)" stroke="none"/>
    </g>
    <g fill="gray" text-rendering="geometricPrecision" shape-rendering="geometricPrecision" stroke="gray">
      <line y2="-103" fill="none" x1="-102" clip-path="url(#clipPath1)" x2="-102" y1="-105"/>
      <line y2="-104" fill="none" x1="-103" clip-path="url(#clipPath1)" x2="-101" y1="-104"/>
      <line y2="-43" fill="none" x1="-102" clip-path="url(#clipPath1)" x2="-102" y1="-45"/>
      <line y2="-44" fill="none" x1="-103" clip-path="url(#clipPath1)" x2="-101" y1="-44"/>
      <line y2="17" fill="none" x1="-102" clip-path="url(#clipPath1)" x2="-102" y1="15"/>
      <line y2="16" fill="none" x1="-103" clip-path="url(#clipPath1)" x2="-101" y1="16"/>
      <line y2="77" fill="none" x1="-102" clip-path="url(#clipPath1)" x2="-102" y1="75"/>
      <line y2="76" fill="none" x1="-103" clip-path="url(#clipPath1)" x2="-101" y1="76"/>
      <line y2="137" fill="none" x1="-102" clip-path="url(#clipPath1)" x2="-102" y1="135"/>
      <line y2="136" fill="none" x1="-103" clip-path="url(#clipPath1)" x2="-101" y1="136"/>
      <line y2="197" fill="none" x1="-102" clip-path="url(#clipPath1)" x2="-102" y1="195"/>
      <line y2="196" fill="none" x1="-103" clip-path="url(#clipPath1)" x2="-101" y1="196"/>
      <line y2="-103" fill="none" x1="-42" clip-path="url(#clipPath1)" x2="-42" y1="-105"/>
      <line y2="-104" fill="none" x1="-43" clip-path="url(#clipPath1)" x2="-41" y1="-104"/>
      <line y2="-43" fill="none" x1="-42" clip-path="url(#clipPath1)" x2="-42" y1="-45"/>
      <line y2="-44" fill="none" x1="-43" clip-path="url(#clipPath1)" x2="-41" y1="-44"/>
      <line y2="17" fill="none" x1="-42" clip-path="url(#clipPath1)" x2="-42" y1="15"/>
      <line y2="16" fill="none" x1="-43" clip-path="url(#clipPath1)" x2="-41" y1="16"/>
      <line y2="77" fill="none" x1="-42" clip-path="url(#clipPath1)" x2="-42" y1="75"/>
      <line y2="76" fill="none" x1="-43" clip-path="url(#clipPath1)" x2="-41" y1="76"/>
      <line y2="137" fill="none" x1="-42" clip-path="url(#clipPath1)" x2="-42" y1="135"/>
      <line y2="136" fill="none" x1="-43" clip-path="url(#clipPath1)" x2="-41" y1="136"/>
      <line y2="197" fill="none" x1="-42" clip-path="url(#clipPath1)" x2="-42" y1="195"/>
      <line y2="196" fill="none" x1="-43" clip-path="url(#clipPath1)" x2="-41" y1="196"/>
      <line y2="-103" fill="none" x1="18" clip-path="url(#clipPath1)" x2="18" y1="-105"/>
      <line y2="-104" fill="none" x1="17" clip-path="url(#clipPath1)" x2="19" y1="-104"/>
      <line y2="-43" fill="none" x1="18" clip-path="url(#clipPath1)" x2="18" y1="-45"/>
      <line y2="-44" fill="none" x1="17" clip-path="url(#clipPath1)" x2="19" y1="-44"/>
      <line y2="17" fill="none" x1="18" clip-path="url(#clipPath1)" x2="18" y1="15"/>
      <line y2="16" fill="none" x1="17" clip-path="url(#clipPath1)" x2="19" y1="16"/>
      <line y2="77" fill="none" x1="18" clip-path="url(#clipPath1)" x2="18" y1="75"/>
      <line y2="76" fill="none" x1="17" clip-path="url(#clipPath1)" x2="19" y1="76"/>
      <line y2="137" fill="none" x1="18" clip-path="url(#clipPath1)" x2="18" y1="135"/>
      <line y2="136" fill="none" x1="17" clip-path="url(#clipPath1)" x2="19" y1="136"/>
      <line y2="197" fill="none" x1="18" clip-path="url(#clipPath1)" x2="18" y1="195"/>
      <line y2="196" fill="none" x1="17" clip-path="url(#clipPath1)" x2="19" y1="196"/>
      <line y2="-103" fill="none" x1="78" clip-path="url(#clipPath1)" x2="78" y1="-105"/>
      <line y2="-104" fill="none" x1="77" clip-path="url(#clipPath1)" x2="79" y1="-104"/>
      <line y2="-43" fill="none" x1="78" clip-path="url(#clipPath1)" x2="78" y1="-45"/>
      <line y2="-44" fill="none" x1="77" clip-path="url(#clipPath1)" x2="79" y1="-44"/>
      <line y2="17" fill="none" x1="78" clip-path="url(#clipPath1)" x2="78" y1="15"/>
      <line y2="16" fill="none" x1="77" clip-path="url(#clipPath1)" x2="79" y1="16"/>
      <line y2="77" fill="none" x1="78" clip-path="url(#clipPath1)" x2="78" y1="75"/>
      <line y2="76" fill="none" x1="77" clip-path="url(#clipPath1)" x2="79" y1="76"/>
      <line y2="137" fill="none" x1="78" clip-path="url(#clipPath1)" x2="78" y1="135"/>
      <line y2="136" fill="none" x1="77" clip-path="url(#clipPath1)" x2="79" y1="136"/>
      <line y2="197" fill="none" x1="78" clip-path="url(#clipPath1)" x2="78" y1="195"/>
      <line y2="196" fill="none" x1="77" clip-path="url(#clipPath1)" x2="79" y1="196"/>
      <line y2="-103" fill="none" x1="138" clip-path="url(#clipPath1)" x2="138" y1="-105"/>
      <line y2="-104" fill="none" x1="137" clip-path="url(#clipPath1)" x2="139" y1="-104"/>
      <line y2="-43" fill="none" x1="138" clip-path="url(#clipPath1)" x2="138" y1="-45"/>
      <line y2="-44" fill="none" x1="137" clip-path="url(#clipPath1)" x2="139" y1="-44"/>
      <line y2="17" fill="none" x1="138" clip-path="url(#clipPath1)" x2="138" y1="15"/>
      <line y2="16" fill="none" x1="137" clip-path="url(#clipPath1)" x2="139" y1="16"/>
      <line y2="77" fill="none" x1="138" clip-path="url(#clipPath1)" x2="138" y1="75"/>
      <line y2="76" fill="none" x1="137" clip-path="url(#clipPath1)" x2="139" y1="76"/>
      <line y2="137" fill="none" x1="138" clip-path="url(#clipPath1)" x2="138" y1="135"/>
      <line y2="136" fill="none" x1="137" clip-path="url(#clipPath1)" x2="139" y1="136"/>
      <line y2="197" fill="none" x1="138" clip-path="url(#clipPath1)" x2="138" y1="195"/>
      <line y2="196" fill="none" x1="137" clip-path="url(#clipPath1)" x2="139" y1="196"/>
      <line y2="-103" fill="none" x1="198" clip-path="url(#clipPath1)" x2="198" y1="-105"/>
      <line y2="-104" fill="none" x1="197" clip-path="url(#clipPath1)" x2="199" y1="-104"/>
      <line y2="-43" fill="none" x1="198" clip-path="url(#clipPath1)" x2="198" y1="-45"/>
      <line y2="-44" fill="none" x1="197" clip-path="url(#clipPath1)" x2="199" y1="-44"/>
      <line y2="17" fill="none" x1="198" clip-path="url(#clipPath1)" x2="198" y1="15"/>
      <line y2="16" fill="none" x1="197" clip-path="url(#clipPath1)" x2="199" y1="16"/>
      <line y2="77" fill="none" x1="198" clip-path="url(#clipPath1)" x2="198" y1="75"/>
      <line y2="76" fill="none" x1="197" clip-path="url(#clipPath1)" x2="199" y1="76"/>
      <line y2="137" fill="none" x1="198" clip-path="url(#clipPath1)" x2="198" y1="135"/>
      <line y2="136" fill="none" x1="197" clip-path="url(#clipPath1)" x2="199" y1="136"/>
      <line y2="197" fill="none" x1="198" clip-path="url(#clipPath1)" x2="198" y1="195"/>
      <line y2="196" fill="none" x1="197" clip-path="url(#clipPath1)" x2="199" y1="196"/>
      <line y2="-103" fill="none" x1="258" clip-path="url(#clipPath1)" x2="258" y1="-105"/>
      <line y2="-104" fill="none" x1="257" clip-path="url(#clipPath1)" x2="259" y1="-104"/>
      <line y2="-43" fill="none" x1="258" clip-path="url(#clipPath1)" x2="258" y1="-45"/>
      <line y2="-44" fill="none" x1="257" clip-path="url(#clipPath1)" x2="259" y1="-44"/>
      <line y2="17" fill="none" x1="258" clip-path="url(#clipPath1)" x2="258" y1="15"/>
      <line y2="16" fill="none" x1="257" clip-path="url(#clipPath1)" x2="259" y1="16"/>
      <line y2="77" fill="none" x1="258" clip-path="url(#clipPath1)" x2="258" y1="75"/>
      <line y2="76" fill="none" x1="257" clip-path="url(#clipPath1)" x2="259" y1="76"/>
      <line y2="137" fill="none" x1="258" clip-path="url(#clipPath1)" x2="258" y1="135"/>
      <line y2="136" fill="none" x1="257" clip-path="url(#clipPath1)" x2="259" y1="136"/>
      <line y2="197" fill="none" x1="258" clip-path="url(#clipPath1)" x2="258" y1="195"/>
      <line y2="196" fill="none" x1="257" clip-path="url(#clipPath1)" x2="259" y1="196"/>
      <line y2="-103" fill="none" x1="318" clip-path="url(#clipPath1)" x2="318" y1="-105"/>
      <line y2="-104" fill="none" x1="317" clip-path="url(#clipPath1)" x2="319" y1="-104"/>
      <line y2="-43" fill="none" x1="318" clip-path="url(#clipPath1)" x2="318" y1="-45"/>
      <line y2="-44" fill="none" x1="317" clip-path="url(#clipPath1)" x2="319" y1="-44"/>
      <line y2="17" fill="none" x1="318" clip-path="url(#clipPath1)" x2="318" y1="15"/>
      <line y2="16" fill="none" x1="317" clip-path="url(#clipPath1)" x2="319" y1="16"/>
      <line y2="77" fill="none" x1="318" clip-path="url(#clipPath1)" x2="318" y1="75"/>
      <line y2="76" fill="none" x1="317" clip-path="url(#clipPath1)" x2="319" y1="76"/>
      <line y2="137" fill="none" x1="318" clip-path="url(#clipPath1)" x2="318" y1="135"/>
      <line y2="136" fill="none" x1="317" clip-path="url(#clipPath1)" x2="319" y1="136"/>
      <line y2="197" fill="none" x1="318" clip-path="url(#clipPath1)" x2="318" y1="195"/>
      <line y2="196" fill="none" x1="317" clip-path="url(#clipPath1)" x2="319" y1="196"/>
      <line y2="-103" fill="none" x1="378" clip-path="url(#clipPath1)" x2="378" y1="-105"/>
      <line y2="-104" fill="none" x1="377" clip-path="url(#clipPath1)" x2="379" y1="-104"/>
      <line y2="-43" fill="none" x1="378" clip-path="url(#clipPath1)" x2="378" y1="-45"/>
      <line y2="-44" fill="none" x1="377" clip-path="url(#clipPath1)" x2="379" y1="-44"/>
      <line y2="17" fill="none" x1="378" clip-path="url(#clipPath1)" x2="378" y1="15"/>
      <line y2="16" fill="none" x1="377" clip-path="url(#clipPath1)" x2="379" y1="16"/>
      <line y2="77" fill="none" x1="378" clip-path="url(#clipPath1)" x2="378" y1="75"/>
      <line y2="76" fill="none" x1="377" clip-path="url(#clipPath1)" x2="379" y1="76"/>
      <line y2="137" fill="none" x1="378" clip-path="url(#clipPath1)" x2="378" y1="135"/>
      <line y2="136" fill="none" x1="377" clip-path="url(#clipPath1)" x2="379" y1="136"/>
      <line y2="197" fill="none" x1="378" clip-path="url(#clipPath1)" x2="378" y1="195"/>
      <line y2="196" fill="none" x1="377" clip-path="url(#clipPath1)" x2="379" y1="196"/>
      <line y2="-103" fill="none" x1="438" clip-path="url(#clipPath1)" x2="438" y1="-105"/>
      <line y2="-104" fill="none" x1="437" clip-path="url(#clipPath1)" x2="439" y1="-104"/>
      <line y2="-43" fill="none" x1="438" clip-path="url(#clipPath1)" x2="438" y1="-45"/>
      <line y2="-44" fill="none" x1="437" clip-path="url(#clipPath1)" x2="439" y1="-44"/>
      <line y2="17" fill="none" x1="438" clip-path="url(#clipPath1)" x2="438" y1="15"/>
      <line y2="16" fill="none" x1="437" clip-path="url(#clipPath1)" x2="439" y1="16"/>
      <line y2="77" fill="none" x1="438" clip-path="url(#clipPath1)" x2="438" y1="75"/>
      <line y2="76" fill="none" x1="437" clip-path="url(#clipPath1)" x2="439" y1="76"/>
      <line y2="137" fill="none" x1="438" clip-path="url(#clipPath1)" x2="438" y1="135"/>
      <line y2="136" fill="none" x1="437" clip-path="url(#clipPath1)" x2="439" y1="136"/>
      <line y2="197" fill="none" x1="438" clip-path="url(#clipPath1)" x2="438" y1="195"/>
      <line y2="196" fill="none" x1="437" clip-path="url(#clipPath1)" x2="439" y1="196"/>
      <line y2="-103" fill="none" x1="498" clip-path="url(#clipPath1)" x2="498" y1="-105"/>
      <line y2="-104" fill="none" x1="497" clip-path="url(#clipPath1)" x2="499" y1="-104"/>
      <line y2="-43" fill="none" x1="498" clip-path="url(#clipPath1)" x2="498" y1="-45"/>
      <line y2="-44" fill="none" x1="497" clip-path="url(#clipPath1)" x2="499" y1="-44"/>
      <line y2="17" fill="none" x1="498" clip-path="url(#clipPath1)" x2="498" y1="15"/>
      <line y2="16" fill="none" x1="497" clip-path="url(#clipPath1)" x2="499" y1="16"/>
      <line y2="77" fill="none" x1="498" clip-path="url(#clipPath1)" x2="498" y1="75"/>
      <line y2="76" fill="none" x1="497" clip-path="url(#clipPath1)" x2="499" y1="76"/>
      <line y2="137" fill="none" x1="498" clip-path="url(#clipPath1)" x2="498" y1="135"/>
      <line y2="136" fill="none" x1="497" clip-path="url(#clipPath1)" x2="499" y1="136"/>
      <line y2="197" fill="none" x1="498" clip-path="url(#clipPath1)" x2="498" y1="195"/>
      <line y2="196" fill="none" x1="497" clip-path="url(#clipPath1)" x2="499" y1="196"/>
      <line y2="-103" fill="none" x1="558" clip-path="url(#clipPath1)" x2="558" y1="-105"/>
      <line y2="-104" fill="none" x1="557" clip-path="url(#clipPath1)" x2="559" y1="-104"/>
      <line y2="-43" fill="none" x1="558" clip-path="url(#clipPath1)" x2="558" y1="-45"/>
      <line y2="-44" fill="none" x1="557" clip-path="url(#clipPath1)" x2="559" y1="-44"/>
      <line y2="17" fill="none" x1="558" clip-path="url(#clipPath1)" x2="558" y1="15"/>
      <line y2="16" fill="none" x1="557" clip-path="url(#clipPath1)" x2="559" y1="16"/>
      <line y2="77" fill="none" x1="558" clip-path="url(#clipPath1)" x2="558" y1="75"/>
      <line y2="76" fill="none" x1="557" clip-path="url(#clipPath1)" x2="559" y1="76"/>
      <line y2="137" fill="none" x1="558" clip-path="url(#clipPath1)" x2="558" y1="135"/>
      <line y2="136" fill="none" x1="557" clip-path="url(#clipPath1)" x2="559" y1="136"/>
      <line y2="197" fill="none" x1="558" clip-path="url(#clipPath1)" x2="558" y1="195"/>
      <line y2="196" fill="none" x1="557" clip-path="url(#clipPath1)" x2="559" y1="196"/>
      <line y2="-103" fill="none" x1="618" clip-path="url(#clipPath1)" x2="618" y1="-105"/>
      <line y2="-104" fill="none" x1="617" clip-path="url(#clipPath1)" x2="619" y1="-104"/>
      <line y2="-43" fill="none" x1="618" clip-path="url(#clipPath1)" x2="618" y1="-45"/>
      <line y2="-44" fill="none" x1="617" clip-path="url(#clipPath1)" x2="619" y1="-44"/>
      <line y2="17" fill="none" x1="618" clip-path="url(#clipPath1)" x2="618" y1="15"/>
      <line y2="16" fill="none" x1="617" clip-path="url(#clipPath1)" x2="619" y1="16"/>
      <line y2="77" fill="none" x1="618" clip-path="url(#clipPath1)" x2="618" y1="75"/>
      <line y2="76" fill="none" x1="617" clip-path="url(#clipPath1)" x2="619" y1="76"/>
      <line y2="137" fill="none" x1="618" clip-path="url(#clipPath1)" x2="618" y1="135"/>
      <line y2="136" fill="none" x1="617" clip-path="url(#clipPath1)" x2="619" y1="136"/>
      <line y2="197" fill="none" x1="618" clip-path="url(#clipPath1)" x2="618" y1="195"/>
      <line y2="196" fill="none" x1="617" clip-path="url(#clipPath1)" x2="619" y1="196"/>
      <line y2="-103" fill="none" x1="678" clip-path="url(#clipPath1)" x2="678" y1="-105"/>
      <line y2="-104" fill="none" x1="677" clip-path="url(#clipPath1)" x2="679" y1="-104"/>
      <line y2="-43" fill="none" x1="678" clip-path="url(#clipPath1)" x2="678" y1="-45"/>
      <line y2="-44" fill="none" x1="677" clip-path="url(#clipPath1)" x2="679" y1="-44"/>
      <line y2="17" fill="none" x1="678" clip-path="url(#clipPath1)" x2="678" y1="15"/>
      <line y2="16" fill="none" x1="677" clip-path="url(#clipPath1)" x2="679" y1="16"/>
      <line y2="77" fill="none" x1="678" clip-path="url(#clipPath1)" x2="678" y1="75"/>
      <line y2="76" fill="none" x1="677" clip-path="url(#clipPath1)" x2="679" y1="76"/>
      <line y2="137" fill="none" x1="678" clip-path="url(#clipPath1)" x2="678" y1="135"/>
      <line y2="136" fill="none" x1="677" clip-path="url(#clipPath1)" x2="679" y1="136"/>
      <line y2="197" fill="none" x1="678" clip-path="url(#clipPath1)" x2="678" y1="195"/>
      <line y2="196" fill="none" x1="677" clip-path="url(#clipPath1)" x2="679" y1="196"/>
      <line y2="-103" fill="none" x1="738" clip-path="url(#clipPath1)" x2="738" y1="-105"/>
      <line y2="-104" fill="none" x1="737" clip-path="url(#clipPath1)" x2="739" y1="-104"/>
      <line y2="-43" fill="none" x1="738" clip-path="url(#clipPath1)" x2="738" y1="-45"/>
      <line y2="-44" fill="none" x1="737" clip-path="url(#clipPath1)" x2="739" y1="-44"/>
      <line y2="17" fill="none" x1="738" clip-path="url(#clipPath1)" x2="738" y1="15"/>
      <line y2="16" fill="none" x1="737" clip-path="url(#clipPath1)" x2="739" y1="16"/>
      <line y2="77" fill="none" x1="738" clip-path="url(#clipPath1)" x2="738" y1="75"/>
      <line y2="76" fill="none" x1="737" clip-path="url(#clipPath1)" x2="739" y1="76"/>
      <line y2="137" fill="none" x1="738" clip-path="url(#clipPath1)" x2="738" y1="135"/>
      <line y2="136" fill="none" x1="737" clip-path="url(#clipPath1)" x2="739" y1="136"/>
      <line y2="197" fill="none" x1="738" clip-path="url(#clipPath1)" x2="738" y1="195"/>
      <line y2="196" fill="none" x1="737" clip-path="url(#clipPath1)" x2="739" y1="196"/>
      <line y2="-103" fill="none" x1="798" clip-path="url(#clipPath1)" x2="798" y1="-105"/>
      <line y2="-104" fill="none" x1="797" clip-path="url(#clipPath1)" x2="799" y1="-104"/>
      <line y2="-43" fill="none" x1="798" clip-path="url(#clipPath1)" x2="798" y1="-45"/>
      <line y2="-44" fill="none" x1="797" clip-path="url(#clipPath1)" x2="799" y1="-44"/>
      <line y2="17" fill="none" x1="798" clip-path="url(#clipPath1)" x2="798" y1="15"/>
      <line y2="16" fill="none" x1="797" clip-path="url(#clipPath1)" x2="799" y1="16"/>
      <line y2="77" fill="none" x1="798" clip-path="url(#clipPath1)" x2="798" y1="75"/>
      <line y2="76" fill="none" x1="797" clip-path="url(#clipPath1)" x2="799" y1="76"/>
      <line y2="137" fill="none" x1="798" clip-path="url(#clipPath1)" x2="798" y1="135"/>
      <line y2="136" fill="none" x1="797" clip-path="url(#clipPath1)" x2="799" y1="136"/>
      <line y2="197" fill="none" x1="798" clip-path="url(#clipPath1)" x2="798" y1="195"/>
      <line y2="196" fill="none" x1="797" clip-path="url(#clipPath1)" x2="799" y1="196"/>
      <line y2="-103" fill="none" x1="858" clip-path="url(#clipPath1)" x2="858" y1="-105"/>
      <line y2="-104" fill="none" x1="857" clip-path="url(#clipPath1)" x2="859" y1="-104"/>
      <line y2="-43" fill="none" x1="858" clip-path="url(#clipPath1)" x2="858" y1="-45"/>
      <line y2="-44" fill="none" x1="857" clip-path="url(#clipPath1)" x2="859" y1="-44"/>
      <line y2="17" fill="none" x1="858" clip-path="url(#clipPath1)" x2="858" y1="15"/>
      <line y2="16" fill="none" x1="857" clip-path="url(#clipPath1)" x2="859" y1="16"/>
      <line y2="77" fill="none" x1="858" clip-path="url(#clipPath1)" x2="858" y1="75"/>
      <line y2="76" fill="none" x1="857" clip-path="url(#clipPath1)" x2="859" y1="76"/>
      <line y2="137" fill="none" x1="858" clip-path="url(#clipPath1)" x2="858" y1="135"/>
      <line y2="136" fill="none" x1="857" clip-path="url(#clipPath1)" x2="859" y1="136"/>
      <line y2="197" fill="none" x1="858" clip-path="url(#clipPath1)" x2="858" y1="195"/>
      <line y2="196" fill="none" x1="857" clip-path="url(#clipPath1)" x2="859" y1="196"/>
      <line y2="-103" fill="none" x1="918" clip-path="url(#clipPath1)" x2="918" y1="-105"/>
      <line y2="-104" fill="none" x1="917" clip-path="url(#clipPath1)" x2="919" y1="-104"/>
      <line y2="-43" fill="none" x1="918" clip-path="url(#clipPath1)" x2="918" y1="-45"/>
      <line y2="-44" fill="none" x1="917" clip-path="url(#clipPath1)" x2="919" y1="-44"/>
      <line y2="17" fill="none" x1="918" clip-path="url(#clipPath1)" x2="918" y1="15"/>
      <line y2="16" fill="none" x1="917" clip-path="url(#clipPath1)" x2="919" y1="16"/>
      <line y2="77" fill="none" x1="918" clip-path="url(#clipPath1)" x2="918" y1="75"/>
      <line y2="76" fill="none" x1="917" clip-path="url(#clipPath1)" x2="919" y1="76"/>
      <line y2="137" fill="none" x1="918" clip-path="url(#clipPath1)" x2="918" y1="135"/>
      <line y2="136" fill="none" x1="917" clip-path="url(#clipPath1)" x2="919" y1="136"/>
      <line y2="197" fill="none" x1="918" clip-path="url(#clipPath1)" x2="918" y1="195"/>
      <line y2="196" fill="none" x1="917" clip-path="url(#clipPath1)" x2="919" y1="196"/>
      <line y2="-103" fill="none" x1="978" clip-path="url(#clipPath1)" x2="978" y1="-105"/>
      <line y2="-104" fill="none" x1="977" clip-path="url(#clipPath1)" x2="979" y1="-104"/>
      <line y2="-43" fill="none" x1="978" clip-path="url(#clipPath1)" x2="978" y1="-45"/>
      <line y2="-44" fill="none" x1="977" clip-path="url(#clipPath1)" x2="979" y1="-44"/>
      <line y2="17" fill="none" x1="978" clip-path="url(#clipPath1)" x2="978" y1="15"/>
      <line y2="16" fill="none" x1="977" clip-path="url(#clipPath1)" x2="979" y1="16"/>
      <line y2="77" fill="none" x1="978" clip-path="url(#clipPath1)" x2="978" y1="75"/>
      <line y2="76" fill="none" x1="977" clip-path="url(#clipPath1)" x2="979" y1="76"/>
      <line y2="137" fill="none" x1="978" clip-path="url(#clipPath1)" x2="978" y1="135"/>
      <line y2="136" fill="none" x1="977" clip-path="url(#clipPath1)" x2="979" y1="136"/>
      <line y2="197" fill="none" x1="978" clip-path="url(#clipPath1)" x2="978" y1="195"/>
      <line y2="196" fill="none" x1="977" clip-path="url(#clipPath1)" x2="979" y1="196"/>
      <line y2="-103" fill="none" x1="1038" clip-path="url(#clipPath1)" x2="1038" y1="-105"/>
      <line y2="-104" fill="none" x1="1037" clip-path="url(#clipPath1)" x2="1039" y1="-104"/>
      <line y2="-43" fill="none" x1="1038" clip-path="url(#clipPath1)" x2="1038" y1="-45"/>
      <line y2="-44" fill="none" x1="1037" clip-path="url(#clipPath1)" x2="1039" y1="-44"/>
      <line y2="17" fill="none" x1="1038" clip-path="url(#clipPath1)" x2="1038" y1="15"/>
      <line y2="16" fill="none" x1="1037" clip-path="url(#clipPath1)" x2="1039" y1="16"/>
      <line y2="77" fill="none" x1="1038" clip-path="url(#clipPath1)" x2="1038" y1="75"/>
      <line y2="76" fill="none" x1="1037" clip-path="url(#clipPath1)" x2="1039" y1="76"/>
      <line y2="137" fill="none" x1="1038" clip-path="url(#clipPath1)" x2="1038" y1="135"/>
      <line y2="136" fill="none" x1="1037" clip-path="url(#clipPath1)" x2="1039" y1="136"/>
      <line y2="197" fill="none" x1="1038" clip-path="url(#clipPath1)" x2="1038" y1="195"/>
      <line y2="196" fill="none" x1="1037" clip-path="url(#clipPath1)" x2="1039" y1="196"/>
      <line y2="-103" fill="none" x1="1098" clip-path="url(#clipPath1)" x2="1098" y1="-105"/>
      <line y2="-104" fill="none" x1="1097" clip-path="url(#clipPath1)" x2="1099" y1="-104"/>
      <line y2="-43" fill="none" x1="1098" clip-path="url(#clipPath1)" x2="1098" y1="-45"/>
      <line y2="-44" fill="none" x1="1097" clip-path="url(#clipPath1)" x2="1099" y1="-44"/>
      <line y2="17" fill="none" x1="1098" clip-path="url(#clipPath1)" x2="1098" y1="15"/>
      <line y2="16" fill="none" x1="1097" clip-path="url(#clipPath1)" x2="1099" y1="16"/>
      <line y2="77" fill="none" x1="1098" clip-path="url(#clipPath1)" x2="1098" y1="75"/>
      <line y2="76" fill="none" x1="1097" clip-path="url(#clipPath1)" x2="1099" y1="76"/>
      <line y2="137" fill="none" x1="1098" clip-path="url(#clipPath1)" x2="1098" y1="135"/>
      <line y2="136" fill="none" x1="1097" clip-path="url(#clipPath1)" x2="1099" y1="136"/>
      <line y2="197" fill="none" x1="1098" clip-path="url(#clipPath1)" x2="1098" y1="195"/>
      <line y2="196" fill="none" x1="1097" clip-path="url(#clipPath1)" x2="1099" y1="196"/>
      <line y2="-103" fill="none" x1="1158" clip-path="url(#clipPath1)" x2="1158" y1="-105"/>
      <line y2="-104" fill="none" x1="1157" clip-path="url(#clipPath1)" x2="1159" y1="-104"/>
      <line y2="-43" fill="none" x1="1158" clip-path="url(#clipPath1)" x2="1158" y1="-45"/>
      <line y2="-44" fill="none" x1="1157" clip-path="url(#clipPath1)" x2="1159" y1="-44"/>
      <line y2="17" fill="none" x1="1158" clip-path="url(#clipPath1)" x2="1158" y1="15"/>
      <line y2="16" fill="none" x1="1157" clip-path="url(#clipPath1)" x2="1159" y1="16"/>
      <line y2="77" fill="none" x1="1158" clip-path="url(#clipPath1)" x2="1158" y1="75"/>
      <line y2="76" fill="none" x1="1157" clip-path="url(#clipPath1)" x2="1159" y1="76"/>
      <line y2="137" fill="none" x1="1158" clip-path="url(#clipPath1)" x2="1158" y1="135"/>
      <line y2="136" fill="none" x1="1157" clip-path="url(#clipPath1)" x2="1159" y1="136"/>
      <line y2="197" fill="none" x1="1158" clip-path="url(#clipPath1)" x2="1158" y1="195"/>
      <line y2="196" fill="none" x1="1157" clip-path="url(#clipPath1)" x2="1159" y1="196"/>
      <line y2="-103" fill="none" x1="1218" clip-path="url(#clipPath1)" x2="1218" y1="-105"/>
      <line y2="-104" fill="none" x1="1217" clip-path="url(#clipPath1)" x2="1219" y1="-104"/>
      <line y2="-43" fill="none" x1="1218" clip-path="url(#clipPath1)" x2="1218" y1="-45"/>
      <line y2="-44" fill="none" x1="1217" clip-path="url(#clipPath1)" x2="1219" y1="-44"/>
      <line y2="17" fill="none" x1="1218" clip-path="url(#clipPath1)" x2="1218" y1="15"/>
      <line y2="16" fill="none" x1="1217" clip-path="url(#clipPath1)" x2="1219" y1="16"/>
      <line y2="77" fill="none" x1="1218" clip-path="url(#clipPath1)" x2="1218" y1="75"/>
      <line y2="76" fill="none" x1="1217" clip-path="url(#clipPath1)" x2="1219" y1="76"/>
      <line y2="137" fill="none" x1="1218" clip-path="url(#clipPath1)" x2="1218" y1="135"/>
      <line y2="136" fill="none" x1="1217" clip-path="url(#clipPath1)" x2="1219" y1="136"/>
      <line y2="197" fill="none" x1="1218" clip-path="url(#clipPath1)" x2="1218" y1="195"/>
      <line y2="196" fill="none" x1="1217" clip-path="url(#clipPath1)" x2="1219" y1="196"/>
      <line y2="-103" fill="none" x1="1278" clip-path="url(#clipPath1)" x2="1278" y1="-105"/>
      <line y2="-104" fill="none" x1="1277" clip-path="url(#clipPath1)" x2="1279" y1="-104"/>
      <line y2="-43" fill="none" x1="1278" clip-path="url(#clipPath1)" x2="1278" y1="-45"/>
      <line y2="-44" fill="none" x1="1277" clip-path="url(#clipPath1)" x2="1279" y1="-44"/>
      <line y2="17" fill="none" x1="1278" clip-path="url(#clipPath1)" x2="1278" y1="15"/>
      <line y2="16" fill="none" x1="1277" clip-path="url(#clipPath1)" x2="1279" y1="16"/>
      <line y2="77" fill="none" x1="1278" clip-path="url(#clipPath1)" x2="1278" y1="75"/>
      <line y2="76" fill="none" x1="1277" clip-path="url(#clipPath1)" x2="1279" y1="76"/>
      <line y2="137" fill="none" x1="1278" clip-path="url(#clipPath1)" x2="1278" y1="135"/>
      <line y2="136" fill="none" x1="1277" clip-path="url(#clipPath1)" x2="1279" y1="136"/>
      <line y2="197" fill="none" x1="1278" clip-path="url(#clipPath1)" x2="1278" y1="195"/>
      <line y2="196" fill="none" x1="1277" clip-path="url(#clipPath1)" x2="1279" y1="196"/>
      <line y2="-103" fill="none" x1="1338" clip-path="url(#clipPath1)" x2="1338" y1="-105"/>
      <line y2="-104" fill="none" x1="1337" clip-path="url(#clipPath1)" x2="1339" y1="-104"/>
      <line y2="-43" fill="none" x1="1338" clip-path="url(#clipPath1)" x2="1338" y1="-45"/>
      <line y2="-44" fill="none" x1="1337" clip-path="url(#clipPath1)" x2="1339" y1="-44"/>
      <line y2="17" fill="none" x1="1338" clip-path="url(#clipPath1)" x2="1338" y1="15"/>
      <line y2="16" fill="none" x1="1337" clip-path="url(#clipPath1)" x2="1339" y1="16"/>
      <line y2="77" fill="none" x1="1338" clip-path="url(#clipPath1)" x2="1338" y1="75"/>
      <line y2="76" fill="none" x1="1337" clip-path="url(#clipPath1)" x2="1339" y1="76"/>
      <line y2="137" fill="none" x1="1338" clip-path="url(#clipPath1)" x2="1338" y1="135"/>
      <line y2="136" fill="none" x1="1337" clip-path="url(#clipPath1)" x2="1339" y1="136"/>
      <line y2="197" fill="none" x1="1338" clip-path="url(#clipPath1)" x2="1338" y1="195"/>
      <line y2="196" fill="none" x1="1337" clip-path="url(#clipPath1)" x2="1339" y1="196"/>
      <line y2="-103" fill="none" x1="1398" clip-path="url(#clipPath1)" x2="1398" y1="-105"/>
      <line y2="-104" fill="none" x1="1397" clip-path="url(#clipPath1)" x2="1399" y1="-104"/>
      <line y2="-43" fill="none" x1="1398" clip-path="url(#clipPath1)" x2="1398" y1="-45"/>
      <line y2="-44" fill="none" x1="1397" clip-path="url(#clipPath1)" x2="1399" y1="-44"/>
      <line y2="17" fill="none" x1="1398" clip-path="url(#clipPath1)" x2="1398" y1="15"/>
      <line y2="16" fill="none" x1="1397" clip-path="url(#clipPath1)" x2="1399" y1="16"/>
      <line y2="77" fill="none" x1="1398" clip-path="url(#clipPath1)" x2="1398" y1="75"/>
      <line y2="76" fill="none" x1="1397" clip-path="url(#clipPath1)" x2="1399" y1="76"/>
      <line y2="137" fill="none" x1="1398" clip-path="url(#clipPath1)" x2="1398" y1="135"/>
      <line y2="136" fill="none" x1="1397" clip-path="url(#clipPath1)" x2="1399" y1="136"/>
      <line y2="197" fill="none" x1="1398" clip-path="url(#clipPath1)" x2="1398" y1="195"/>
      <line y2="196" fill="none" x1="1397" clip-path="url(#clipPath1)" x2="1399" y1="196"/>
      <line y2="-103" fill="none" x1="1458" clip-path="url(#clipPath1)" x2="1458" y1="-105"/>
      <line y2="-104" fill="none" x1="1457" clip-path="url(#clipPath1)" x2="1459" y1="-104"/>
      <line y2="-43" fill="none" x1="1458" clip-path="url(#clipPath1)" x2="1458" y1="-45"/>
      <line y2="-44" fill="none" x1="1457" clip-path="url(#clipPath1)" x2="1459" y1="-44"/>
      <line y2="17" fill="none" x1="1458" clip-path="url(#clipPath1)" x2="1458" y1="15"/>
      <line y2="16" fill="none" x1="1457" clip-path="url(#clipPath1)" x2="1459" y1="16"/>
      <line y2="77" fill="none" x1="1458" clip-path="url(#clipPath1)" x2="1458" y1="75"/>
      <line y2="76" fill="none" x1="1457" clip-path="url(#clipPath1)" x2="1459" y1="76"/>
      <line y2="137" fill="none" x1="1458" clip-path="url(#clipPath1)" x2="1458" y1="135"/>
      <line y2="136" fill="none" x1="1457" clip-path="url(#clipPath1)" x2="1459" y1="136"/>
      <line y2="197" fill="none" x1="1458" clip-path="url(#clipPath1)" x2="1458" y1="195"/>
      <line y2="196" fill="none" x1="1457" clip-path="url(#clipPath1)" x2="1459" y1="196"/>
      <line y2="-103" fill="none" x1="1518" clip-path="url(#clipPath1)" x2="1518" y1="-105"/>
      <line y2="-104" fill="none" x1="1517" clip-path="url(#clipPath1)" x2="1519" y1="-104"/>
      <line y2="-43" fill="none" x1="1518" clip-path="url(#clipPath1)" x2="1518" y1="-45"/>
      <line y2="-44" fill="none" x1="1517" clip-path="url(#clipPath1)" x2="1519" y1="-44"/>
      <line y2="17" fill="none" x1="1518" clip-path="url(#clipPath1)" x2="1518" y1="15"/>
      <line y2="16" fill="none" x1="1517" clip-path="url(#clipPath1)" x2="1519" y1="16"/>
      <line y2="77" fill="none" x1="1518" clip-path="url(#clipPath1)" x2="1518" y1="75"/>
      <line y2="76" fill="none" x1="1517" clip-path="url(#clipPath1)" x2="1519" y1="76"/>
      <line y2="137" fill="none" x1="1518" clip-path="url(#clipPath1)" x2="1518" y1="135"/>
      <line y2="136" fill="none" x1="1517" clip-path="url(#clipPath1)" x2="1519" y1="136"/>
      <line y2="197" fill="none" x1="1518" clip-path="url(#clipPath1)" x2="1518" y1="195"/>
      <line y2="196" fill="none" x1="1517" clip-path="url(#clipPath1)" x2="1519" y1="196"/>
      <line y2="-103" fill="none" x1="1578" clip-path="url(#clipPath1)" x2="1578" y1="-105"/>
      <line y2="-104" fill="none" x1="1577" clip-path="url(#clipPath1)" x2="1579" y1="-104"/>
      <line y2="-43" fill="none" x1="1578" clip-path="url(#clipPath1)" x2="1578" y1="-45"/>
      <line y2="-44" fill="none" x1="1577" clip-path="url(#clipPath1)" x2="1579" y1="-44"/>
      <line y2="17" fill="none" x1="1578" clip-path="url(#clipPath1)" x2="1578" y1="15"/>
      <line y2="16" fill="none" x1="1577" clip-path="url(#clipPath1)" x2="1579" y1="16"/>
      <line y2="77" fill="none" x1="1578" clip-path="url(#clipPath1)" x2="1578" y1="75"/>
      <line y2="76" fill="none" x1="1577" clip-path="url(#clipPath1)" x2="1579" y1="76"/>
      <line y2="137" fill="none" x1="1578" clip-path="url(#clipPath1)" x2="1578" y1="135"/>
      <line y2="136" fill="none" x1="1577" clip-path="url(#clipPath1)" x2="1579" y1="136"/>
      <line y2="197" fill="none" x1="1578" clip-path="url(#clipPath1)" x2="1578" y1="195"/>
      <line y2="196" fill="none" x1="1577" clip-path="url(#clipPath1)" x2="1579" y1="196"/>
    </g>
    <g fill="rgb(255,204,0)" text-rendering="geometricPrecision" shape-rendering="geometricPrecision" transform="matrix(2,0,0,2,-102,196)" stroke="rgb(255,204,0)">
      <rect x="682.5" width="133" height="60" y="-90" clip-path="url(#clipPath2)" stroke="none"/>
    </g>
    <g text-rendering="geometricPrecision" stroke-miterlimit="1.45" shape-rendering="geometricPrecision" transform="matrix(2,0,0,2,-102,196)" stroke-linecap="butt">
      <rect fill="none" x="682.5" width="133" height="60" y="-90" clip-path="url(#clipPath2)"/>
      <text x="709.3203" xml:space="preserve" y="-69.5977" clip-path="url(#clipPath2)" font-family="sans-serif" stroke="none">Run run.py to</text>
      <text x="688.877" xml:space="preserve" y="-55.4648" clip-path="url(#clipPath2)" font-family="sans-serif" stroke="none">validate and compile</text>
      <text x="720.2246" xml:space="preserve" y="-41.332" clip-path="url(#clipPath2)" font-family="sans-serif" stroke="none">your code</text>
    </g>
    <g fill="rgb(255,204,0)" text-rendering="geometricPrecision" shape-rendering="geometricPrecision" transform="matrix(2,0,0,2,-102,196)" stroke="rgb(255,204,0)">
      <rect x="527.5" width="133" height="60" y="-90" clip-path="url(#clipPath2)" stroke="none"/>
    </g>
    <g text-rendering="geometricPrecision" stroke-miterlimit="1.45" shape-rendering="geometricPrecision" transform="matrix(2,0,0,2,-102,196)" stroke-linecap="butt">
      <rect fill="none" x="527.5" width="133" height="60" y="-90" clip-path="url(#clipPath2)"/>
      <text x="563.0186" xml:space="preserve" y="-62.5312" clip-path="url(#clipPath2)" font-family="sans-serif" stroke="none">Customize</text>
      <text x="532.4297" xml:space="preserve" y="-48.3984" clip-path="url(#clipPath2)" font-family="sans-serif" stroke="none">configs/params.yaml</text>
    </g>
    <g fill="rgb(255,204,0)" text-rendering="geometricPrecision" shape-rendering="geometricPrecision" transform="matrix(2,0,0,2,-102,196)" stroke="rgb(255,204,0)">
      <rect x="371.5" width="134" height="60" y="-90" clip-path="url(#clipPath2)" stroke="none"/>
    </g>
    <g text-rendering="geometricPrecision" stroke-miterlimit="1.45" shape-rendering="geometricPrecision" transform="matrix(2,0,0,2,-102,196)" stroke-linecap="butt">
      <rect fill="none" x="371.5" width="134" height="60" y="-90" clip-path="url(#clipPath2)"/>
      <text x="387.1309" xml:space="preserve" y="-62.5312" clip-path="url(#clipPath2)" font-family="sans-serif" stroke="none">Implement helper</text>
      <text x="393.9717" xml:space="preserve" y="-48.3984" clip-path="url(#clipPath2)" font-family="sans-serif" stroke="none">logic in utils.py</text>
    </g>
    <g fill="rgb(255,204,0)" text-rendering="geometricPrecision" shape-rendering="geometricPrecision" transform="matrix(2,0,0,2,-102,196)" stroke="rgb(255,204,0)">
      <rect x="215.5" width="134" height="60" y="-90" clip-path="url(#clipPath2)" stroke="none"/>
    </g>
    <g text-rendering="geometricPrecision" stroke-miterlimit="1.45" shape-rendering="geometricPrecision" transform="matrix(2,0,0,2,-102,196)" stroke-linecap="butt">
      <rect fill="none" x="215.5" width="134" height="60" y="-90" clip-path="url(#clipPath2)"/>
      <text x="221.7295" xml:space="preserve" y="-69.5977" clip-path="url(#clipPath2)" font-family="sans-serif" stroke="none">Read your input data</text>
      <text x="232.8857" xml:space="preserve" y="-55.4648" clip-path="url(#clipPath2)" font-family="sans-serif" stroke="none">with input_fn() in</text>
      <text x="261.043" xml:space="preserve" y="-41.332" clip-path="url(#clipPath2)" font-family="sans-serif" stroke="none">data.py</text>
    </g>
    <g fill="rgb(255,204,0)" text-rendering="geometricPrecision" shape-rendering="geometricPrecision" transform="matrix(2,0,0,2,-102,196)" stroke="rgb(255,204,0)">
      <rect x="59.5" width="134" height="60" y="-90" clip-path="url(#clipPath2)" stroke="none"/>
    </g>
    <g text-rendering="geometricPrecision" stroke-miterlimit="1.45" shape-rendering="geometricPrecision" transform="matrix(2,0,0,2,-102,196)" stroke-linecap="butt">
      <rect fill="none" x="59.5" width="134" height="60" y="-90" clip-path="url(#clipPath2)"/>
      <text x="73.1035" xml:space="preserve" y="-69.5977" clip-path="url(#clipPath2)" font-family="sans-serif" stroke="none">Build model layers</text>
      <text x="73.9473" xml:space="preserve" y="-55.4648" clip-path="url(#clipPath2)" font-family="sans-serif" stroke="none">with model_fn() in</text>
      <text x="99.5498" xml:space="preserve" y="-41.332" clip-path="url(#clipPath2)" font-family="sans-serif" stroke="none">model.py</text>
      <path fill="none" d="M660.5 -60 L674.5 -60" clip-path="url(#clipPath2)"/>
      <path d="M682.5 -60 L670.5 -65 L673.5 -60 L670.5 -55 Z" clip-path="url(#clipPath2)" stroke="none"/>
      <path fill="none" d="M505.5 -60 L519.5 -60" clip-path="url(#clipPath2)"/>
      <path d="M527.5 -60 L515.5 -65 L518.5 -60 L515.5 -55 Z" clip-path="url(#clipPath2)" stroke="none"/>
      <path fill="none" d="M349.5 -60 L363.5 -60" clip-path="url(#clipPath2)"/>
      <path d="M371.5 -60 L359.5 -65 L362.5 -60 L359.5 -55 Z" clip-path="url(#clipPath2)" stroke="none"/>
      <path fill="none" d="M193.5 -60 L207.5 -60" clip-path="url(#clipPath2)"/>
      <path d="M215.5 -60 L203.5 -65 L206.5 -60 L203.5 -55 Z" clip-path="url(#clipPath2)" stroke="none"/>
    </g>
  </g>
</svg>
