<?xml version="1.0" encoding="UTF-8"?><svg xmlns="http://www.w3.org/2000/svg" xmlns:xlink="http://www.w3.org/1999/xlink" fill-opacity="1" color-rendering="auto" color-interpolation="auto" text-rendering="auto" stroke="black" stroke-linecap="square" width="1684" stroke-miterlimit="10" shape-rendering="auto" stroke-opacity="1" fill="black" stroke-dasharray="none" font-weight="normal" stroke-width="1" height="152" font-family="'Dialog'" font-style="normal" stroke-linejoin="miter" font-size="12px" stroke-dashoffset="0" image-rendering="auto">
  <!--Generated by ySVG 2.6-->
  <defs id="genericDefs"/>
  <g>
    <defs id="defs1">
      <clipPath clipPathUnits="userSpaceOnUse" id="clipPath1">
        <path d="M0 0 L1684 0 L1684 152 L0 152 L0 0 Z"/>
      </clipPath>
      <clipPath clipPathUnits="userSpaceOnUse" id="clipPath2">
        <path d="M157 1177 L999 1177 L999 1253 L157 1253 L157 1177 Z"/>
      </clipPath>
    </defs>
    <g fill="white" text-rendering="geometricPrecision" shape-rendering="geometricPrecision" transform="scale(2,2) translate(-157,-1177)" stroke="white">
      <rect x="157" width="842" height="76" y="1177" clip-path="url(#clipPath2)" stroke="none"/>
    </g>
    <g fill="gray" text-rendering="geometricPrecision" shape-rendering="geometricPrecision" stroke="gray">
      <line y2="-73" fill="none" x1="-74" clip-path="url(#clipPath1)" x2="-74" y1="-75"/>
      <line y2="-74" fill="none" x1="-75" clip-path="url(#clipPath1)" x2="-73" y1="-74"/>
      <line y2="-13" fill="none" x1="-74" clip-path="url(#clipPath1)" x2="-74" y1="-15"/>
      <line y2="-14" fill="none" x1="-75" clip-path="url(#clipPath1)" x2="-73" y1="-14"/>
      <line y2="47" fill="none" x1="-74" clip-path="url(#clipPath1)" x2="-74" y1="45"/>
      <line y2="46" fill="none" x1="-75" clip-path="url(#clipPath1)" x2="-73" y1="46"/>
      <line y2="107" fill="none" x1="-74" clip-path="url(#clipPath1)" x2="-74" y1="105"/>
      <line y2="106" fill="none" x1="-75" clip-path="url(#clipPath1)" x2="-73" y1="106"/>
      <line y2="167" fill="none" x1="-74" clip-path="url(#clipPath1)" x2="-74" y1="165"/>
      <line y2="166" fill="none" x1="-75" clip-path="url(#clipPath1)" x2="-73" y1="166"/>
      <line y2="-73" fill="none" x1="-14" clip-path="url(#clipPath1)" x2="-14" y1="-75"/>
      <line y2="-74" fill="none" x1="-15" clip-path="url(#clipPath1)" x2="-13" y1="-74"/>
      <line y2="-13" fill="none" x1="-14" clip-path="url(#clipPath1)" x2="-14" y1="-15"/>
      <line y2="-14" fill="none" x1="-15" clip-path="url(#clipPath1)" x2="-13" y1="-14"/>
      <line y2="47" fill="none" x1="-14" clip-path="url(#clipPath1)" x2="-14" y1="45"/>
      <line y2="46" fill="none" x1="-15" clip-path="url(#clipPath1)" x2="-13" y1="46"/>
      <line y2="107" fill="none" x1="-14" clip-path="url(#clipPath1)" x2="-14" y1="105"/>
      <line y2="106" fill="none" x1="-15" clip-path="url(#clipPath1)" x2="-13" y1="106"/>
      <line y2="167" fill="none" x1="-14" clip-path="url(#clipPath1)" x2="-14" y1="165"/>
      <line y2="166" fill="none" x1="-15" clip-path="url(#clipPath1)" x2="-13" y1="166"/>
      <line y2="-73" fill="none" x1="46" clip-path="url(#clipPath1)" x2="46" y1="-75"/>
      <line y2="-74" fill="none" x1="45" clip-path="url(#clipPath1)" x2="47" y1="-74"/>
      <line y2="-13" fill="none" x1="46" clip-path="url(#clipPath1)" x2="46" y1="-15"/>
      <line y2="-14" fill="none" x1="45" clip-path="url(#clipPath1)" x2="47" y1="-14"/>
      <line y2="47" fill="none" x1="46" clip-path="url(#clipPath1)" x2="46" y1="45"/>
      <line y2="46" fill="none" x1="45" clip-path="url(#clipPath1)" x2="47" y1="46"/>
      <line y2="107" fill="none" x1="46" clip-path="url(#clipPath1)" x2="46" y1="105"/>
      <line y2="106" fill="none" x1="45" clip-path="url(#clipPath1)" x2="47" y1="106"/>
      <line y2="167" fill="none" x1="46" clip-path="url(#clipPath1)" x2="46" y1="165"/>
      <line y2="166" fill="none" x1="45" clip-path="url(#clipPath1)" x2="47" y1="166"/>
      <line y2="-73" fill="none" x1="106" clip-path="url(#clipPath1)" x2="106" y1="-75"/>
      <line y2="-74" fill="none" x1="105" clip-path="url(#clipPath1)" x2="107" y1="-74"/>
      <line y2="-13" fill="none" x1="106" clip-path="url(#clipPath1)" x2="106" y1="-15"/>
      <line y2="-14" fill="none" x1="105" clip-path="url(#clipPath1)" x2="107" y1="-14"/>
      <line y2="47" fill="none" x1="106" clip-path="url(#clipPath1)" x2="106" y1="45"/>
      <line y2="46" fill="none" x1="105" clip-path="url(#clipPath1)" x2="107" y1="46"/>
      <line y2="107" fill="none" x1="106" clip-path="url(#clipPath1)" x2="106" y1="105"/>
      <line y2="106" fill="none" x1="105" clip-path="url(#clipPath1)" x2="107" y1="106"/>
      <line y2="167" fill="none" x1="106" clip-path="url(#clipPath1)" x2="106" y1="165"/>
      <line y2="166" fill="none" x1="105" clip-path="url(#clipPath1)" x2="107" y1="166"/>
      <line y2="-73" fill="none" x1="166" clip-path="url(#clipPath1)" x2="166" y1="-75"/>
      <line y2="-74" fill="none" x1="165" clip-path="url(#clipPath1)" x2="167" y1="-74"/>
      <line y2="-13" fill="none" x1="166" clip-path="url(#clipPath1)" x2="166" y1="-15"/>
      <line y2="-14" fill="none" x1="165" clip-path="url(#clipPath1)" x2="167" y1="-14"/>
      <line y2="47" fill="none" x1="166" clip-path="url(#clipPath1)" x2="166" y1="45"/>
      <line y2="46" fill="none" x1="165" clip-path="url(#clipPath1)" x2="167" y1="46"/>
      <line y2="107" fill="none" x1="166" clip-path="url(#clipPath1)" x2="166" y1="105"/>
      <line y2="106" fill="none" x1="165" clip-path="url(#clipPath1)" x2="167" y1="106"/>
      <line y2="167" fill="none" x1="166" clip-path="url(#clipPath1)" x2="166" y1="165"/>
      <line y2="166" fill="none" x1="165" clip-path="url(#clipPath1)" x2="167" y1="166"/>
      <line y2="-73" fill="none" x1="226" clip-path="url(#clipPath1)" x2="226" y1="-75"/>
      <line y2="-74" fill="none" x1="225" clip-path="url(#clipPath1)" x2="227" y1="-74"/>
      <line y2="-13" fill="none" x1="226" clip-path="url(#clipPath1)" x2="226" y1="-15"/>
      <line y2="-14" fill="none" x1="225" clip-path="url(#clipPath1)" x2="227" y1="-14"/>
      <line y2="47" fill="none" x1="226" clip-path="url(#clipPath1)" x2="226" y1="45"/>
      <line y2="46" fill="none" x1="225" clip-path="url(#clipPath1)" x2="227" y1="46"/>
      <line y2="107" fill="none" x1="226" clip-path="url(#clipPath1)" x2="226" y1="105"/>
      <line y2="106" fill="none" x1="225" clip-path="url(#clipPath1)" x2="227" y1="106"/>
      <line y2="167" fill="none" x1="226" clip-path="url(#clipPath1)" x2="226" y1="165"/>
      <line y2="166" fill="none" x1="225" clip-path="url(#clipPath1)" x2="227" y1="166"/>
      <line y2="-73" fill="none" x1="286" clip-path="url(#clipPath1)" x2="286" y1="-75"/>
      <line y2="-74" fill="none" x1="285" clip-path="url(#clipPath1)" x2="287" y1="-74"/>
      <line y2="-13" fill="none" x1="286" clip-path="url(#clipPath1)" x2="286" y1="-15"/>
      <line y2="-14" fill="none" x1="285" clip-path="url(#clipPath1)" x2="287" y1="-14"/>
      <line y2="47" fill="none" x1="286" clip-path="url(#clipPath1)" x2="286" y1="45"/>
      <line y2="46" fill="none" x1="285" clip-path="url(#clipPath1)" x2="287" y1="46"/>
      <line y2="107" fill="none" x1="286" clip-path="url(#clipPath1)" x2="286" y1="105"/>
      <line y2="106" fill="none" x1="285" clip-path="url(#clipPath1)" x2="287" y1="106"/>
      <line y2="167" fill="none" x1="286" clip-path="url(#clipPath1)" x2="286" y1="165"/>
      <line y2="166" fill="none" x1="285" clip-path="url(#clipPath1)" x2="287" y1="166"/>
      <line y2="-73" fill="none" x1="346" clip-path="url(#clipPath1)" x2="346" y1="-75"/>
      <line y2="-74" fill="none" x1="345" clip-path="url(#clipPath1)" x2="347" y1="-74"/>
      <line y2="-13" fill="none" x1="346" clip-path="url(#clipPath1)" x2="346" y1="-15"/>
      <line y2="-14" fill="none" x1="345" clip-path="url(#clipPath1)" x2="347" y1="-14"/>
      <line y2="47" fill="none" x1="346" clip-path="url(#clipPath1)" x2="346" y1="45"/>
      <line y2="46" fill="none" x1="345" clip-path="url(#clipPath1)" x2="347" y1="46"/>
      <line y2="107" fill="none" x1="346" clip-path="url(#clipPath1)" x2="346" y1="105"/>
      <line y2="106" fill="none" x1="345" clip-path="url(#clipPath1)" x2="347" y1="106"/>
      <line y2="167" fill="none" x1="346" clip-path="url(#clipPath1)" x2="346" y1="165"/>
      <line y2="166" fill="none" x1="345" clip-path="url(#clipPath1)" x2="347" y1="166"/>
      <line y2="-73" fill="none" x1="406" clip-path="url(#clipPath1)" x2="406" y1="-75"/>
      <line y2="-74" fill="none" x1="405" clip-path="url(#clipPath1)" x2="407" y1="-74"/>
      <line y2="-13" fill="none" x1="406" clip-path="url(#clipPath1)" x2="406" y1="-15"/>
      <line y2="-14" fill="none" x1="405" clip-path="url(#clipPath1)" x2="407" y1="-14"/>
      <line y2="47" fill="none" x1="406" clip-path="url(#clipPath1)" x2="406" y1="45"/>
      <line y2="46" fill="none" x1="405" clip-path="url(#clipPath1)" x2="407" y1="46"/>
      <line y2="107" fill="none" x1="406" clip-path="url(#clipPath1)" x2="406" y1="105"/>
      <line y2="106" fill="none" x1="405" clip-path="url(#clipPath1)" x2="407" y1="106"/>
      <line y2="167" fill="none" x1="406" clip-path="url(#clipPath1)" x2="406" y1="165"/>
      <line y2="166" fill="none" x1="405" clip-path="url(#clipPath1)" x2="407" y1="166"/>
      <line y2="-73" fill="none" x1="466" clip-path="url(#clipPath1)" x2="466" y1="-75"/>
      <line y2="-74" fill="none" x1="465" clip-path="url(#clipPath1)" x2="467" y1="-74"/>
      <line y2="-13" fill="none" x1="466" clip-path="url(#clipPath1)" x2="466" y1="-15"/>
      <line y2="-14" fill="none" x1="465" clip-path="url(#clipPath1)" x2="467" y1="-14"/>
      <line y2="47" fill="none" x1="466" clip-path="url(#clipPath1)" x2="466" y1="45"/>
      <line y2="46" fill="none" x1="465" clip-path="url(#clipPath1)" x2="467" y1="46"/>
      <line y2="107" fill="none" x1="466" clip-path="url(#clipPath1)" x2="466" y1="105"/>
      <line y2="106" fill="none" x1="465" clip-path="url(#clipPath1)" x2="467" y1="106"/>
      <line y2="167" fill="none" x1="466" clip-path="url(#clipPath1)" x2="466" y1="165"/>
      <line y2="166" fill="none" x1="465" clip-path="url(#clipPath1)" x2="467" y1="166"/>
      <line y2="-73" fill="none" x1="526" clip-path="url(#clipPath1)" x2="526" y1="-75"/>
      <line y2="-74" fill="none" x1="525" clip-path="url(#clipPath1)" x2="527" y1="-74"/>
      <line y2="-13" fill="none" x1="526" clip-path="url(#clipPath1)" x2="526" y1="-15"/>
      <line y2="-14" fill="none" x1="525" clip-path="url(#clipPath1)" x2="527" y1="-14"/>
      <line y2="47" fill="none" x1="526" clip-path="url(#clipPath1)" x2="526" y1="45"/>
      <line y2="46" fill="none" x1="525" clip-path="url(#clipPath1)" x2="527" y1="46"/>
      <line y2="107" fill="none" x1="526" clip-path="url(#clipPath1)" x2="526" y1="105"/>
      <line y2="106" fill="none" x1="525" clip-path="url(#clipPath1)" x2="527" y1="106"/>
      <line y2="167" fill="none" x1="526" clip-path="url(#clipPath1)" x2="526" y1="165"/>
      <line y2="166" fill="none" x1="525" clip-path="url(#clipPath1)" x2="527" y1="166"/>
      <line y2="-73" fill="none" x1="586" clip-path="url(#clipPath1)" x2="586" y1="-75"/>
      <line y2="-74" fill="none" x1="585" clip-path="url(#clipPath1)" x2="587" y1="-74"/>
      <line y2="-13" fill="none" x1="586" clip-path="url(#clipPath1)" x2="586" y1="-15"/>
      <line y2="-14" fill="none" x1="585" clip-path="url(#clipPath1)" x2="587" y1="-14"/>
      <line y2="47" fill="none" x1="586" clip-path="url(#clipPath1)" x2="586" y1="45"/>
      <line y2="46" fill="none" x1="585" clip-path="url(#clipPath1)" x2="587" y1="46"/>
      <line y2="107" fill="none" x1="586" clip-path="url(#clipPath1)" x2="586" y1="105"/>
      <line y2="106" fill="none" x1="585" clip-path="url(#clipPath1)" x2="587" y1="106"/>
      <line y2="167" fill="none" x1="586" clip-path="url(#clipPath1)" x2="586" y1="165"/>
      <line y2="166" fill="none" x1="585" clip-path="url(#clipPath1)" x2="587" y1="166"/>
      <line y2="-73" fill="none" x1="646" clip-path="url(#clipPath1)" x2="646" y1="-75"/>
      <line y2="-74" fill="none" x1="645" clip-path="url(#clipPath1)" x2="647" y1="-74"/>
      <line y2="-13" fill="none" x1="646" clip-path="url(#clipPath1)" x2="646" y1="-15"/>
      <line y2="-14" fill="none" x1="645" clip-path="url(#clipPath1)" x2="647" y1="-14"/>
      <line y2="47" fill="none" x1="646" clip-path="url(#clipPath1)" x2="646" y1="45"/>
      <line y2="46" fill="none" x1="645" clip-path="url(#clipPath1)" x2="647" y1="46"/>
      <line y2="107" fill="none" x1="646" clip-path="url(#clipPath1)" x2="646" y1="105"/>
      <line y2="106" fill="none" x1="645" clip-path="url(#clipPath1)" x2="647" y1="106"/>
      <line y2="167" fill="none" x1="646" clip-path="url(#clipPath1)" x2="646" y1="165"/>
      <line y2="166" fill="none" x1="645" clip-path="url(#clipPath1)" x2="647" y1="166"/>
      <line y2="-73" fill="none" x1="706" clip-path="url(#clipPath1)" x2="706" y1="-75"/>
      <line y2="-74" fill="none" x1="705" clip-path="url(#clipPath1)" x2="707" y1="-74"/>
      <line y2="-13" fill="none" x1="706" clip-path="url(#clipPath1)" x2="706" y1="-15"/>
      <line y2="-14" fill="none" x1="705" clip-path="url(#clipPath1)" x2="707" y1="-14"/>
      <line y2="47" fill="none" x1="706" clip-path="url(#clipPath1)" x2="706" y1="45"/>
      <line y2="46" fill="none" x1="705" clip-path="url(#clipPath1)" x2="707" y1="46"/>
      <line y2="107" fill="none" x1="706" clip-path="url(#clipPath1)" x2="706" y1="105"/>
      <line y2="106" fill="none" x1="705" clip-path="url(#clipPath1)" x2="707" y1="106"/>
      <line y2="167" fill="none" x1="706" clip-path="url(#clipPath1)" x2="706" y1="165"/>
      <line y2="166" fill="none" x1="705" clip-path="url(#clipPath1)" x2="707" y1="166"/>
      <line y2="-73" fill="none" x1="766" clip-path="url(#clipPath1)" x2="766" y1="-75"/>
      <line y2="-74" fill="none" x1="765" clip-path="url(#clipPath1)" x2="767" y1="-74"/>
      <line y2="-13" fill="none" x1="766" clip-path="url(#clipPath1)" x2="766" y1="-15"/>
      <line y2="-14" fill="none" x1="765" clip-path="url(#clipPath1)" x2="767" y1="-14"/>
      <line y2="47" fill="none" x1="766" clip-path="url(#clipPath1)" x2="766" y1="45"/>
      <line y2="46" fill="none" x1="765" clip-path="url(#clipPath1)" x2="767" y1="46"/>
      <line y2="107" fill="none" x1="766" clip-path="url(#clipPath1)" x2="766" y1="105"/>
      <line y2="106" fill="none" x1="765" clip-path="url(#clipPath1)" x2="767" y1="106"/>
      <line y2="167" fill="none" x1="766" clip-path="url(#clipPath1)" x2="766" y1="165"/>
      <line y2="166" fill="none" x1="765" clip-path="url(#clipPath1)" x2="767" y1="166"/>
      <line y2="-73" fill="none" x1="826" clip-path="url(#clipPath1)" x2="826" y1="-75"/>
      <line y2="-74" fill="none" x1="825" clip-path="url(#clipPath1)" x2="827" y1="-74"/>
      <line y2="-13" fill="none" x1="826" clip-path="url(#clipPath1)" x2="826" y1="-15"/>
      <line y2="-14" fill="none" x1="825" clip-path="url(#clipPath1)" x2="827" y1="-14"/>
      <line y2="47" fill="none" x1="826" clip-path="url(#clipPath1)" x2="826" y1="45"/>
      <line y2="46" fill="none" x1="825" clip-path="url(#clipPath1)" x2="827" y1="46"/>
      <line y2="107" fill="none" x1="826" clip-path="url(#clipPath1)" x2="826" y1="105"/>
      <line y2="106" fill="none" x1="825" clip-path="url(#clipPath1)" x2="827" y1="106"/>
      <line y2="167" fill="none" x1="826" clip-path="url(#clipPath1)" x2="826" y1="165"/>
      <line y2="166" fill="none" x1="825" clip-path="url(#clipPath1)" x2="827" y1="166"/>
      <line y2="-73" fill="none" x1="886" clip-path="url(#clipPath1)" x2="886" y1="-75"/>
      <line y2="-74" fill="none" x1="885" clip-path="url(#clipPath1)" x2="887" y1="-74"/>
      <line y2="-13" fill="none" x1="886" clip-path="url(#clipPath1)" x2="886" y1="-15"/>
      <line y2="-14" fill="none" x1="885" clip-path="url(#clipPath1)" x2="887" y1="-14"/>
      <line y2="47" fill="none" x1="886" clip-path="url(#clipPath1)" x2="886" y1="45"/>
      <line y2="46" fill="none" x1="885" clip-path="url(#clipPath1)" x2="887" y1="46"/>
      <line y2="107" fill="none" x1="886" clip-path="url(#clipPath1)" x2="886" y1="105"/>
      <line y2="106" fill="none" x1="885" clip-path="url(#clipPath1)" x2="887" y1="106"/>
      <line y2="167" fill="none" x1="886" clip-path="url(#clipPath1)" x2="886" y1="165"/>
      <line y2="166" fill="none" x1="885" clip-path="url(#clipPath1)" x2="887" y1="166"/>
      <line y2="-73" fill="none" x1="946" clip-path="url(#clipPath1)" x2="946" y1="-75"/>
      <line y2="-74" fill="none" x1="945" clip-path="url(#clipPath1)" x2="947" y1="-74"/>
      <line y2="-13" fill="none" x1="946" clip-path="url(#clipPath1)" x2="946" y1="-15"/>
      <line y2="-14" fill="none" x1="945" clip-path="url(#clipPath1)" x2="947" y1="-14"/>
      <line y2="47" fill="none" x1="946" clip-path="url(#clipPath1)" x2="946" y1="45"/>
      <line y2="46" fill="none" x1="945" clip-path="url(#clipPath1)" x2="947" y1="46"/>
      <line y2="107" fill="none" x1="946" clip-path="url(#clipPath1)" x2="946" y1="105"/>
      <line y2="106" fill="none" x1="945" clip-path="url(#clipPath1)" x2="947" y1="106"/>
      <line y2="167" fill="none" x1="946" clip-path="url(#clipPath1)" x2="946" y1="165"/>
      <line y2="166" fill="none" x1="945" clip-path="url(#clipPath1)" x2="947" y1="166"/>
      <line y2="-73" fill="none" x1="1006" clip-path="url(#clipPath1)" x2="1006" y1="-75"/>
      <line y2="-74" fill="none" x1="1005" clip-path="url(#clipPath1)" x2="1007" y1="-74"/>
      <line y2="-13" fill="none" x1="1006" clip-path="url(#clipPath1)" x2="1006" y1="-15"/>
      <line y2="-14" fill="none" x1="1005" clip-path="url(#clipPath1)" x2="1007" y1="-14"/>
      <line y2="47" fill="none" x1="1006" clip-path="url(#clipPath1)" x2="1006" y1="45"/>
      <line y2="46" fill="none" x1="1005" clip-path="url(#clipPath1)" x2="1007" y1="46"/>
      <line y2="107" fill="none" x1="1006" clip-path="url(#clipPath1)" x2="1006" y1="105"/>
      <line y2="106" fill="none" x1="1005" clip-path="url(#clipPath1)" x2="1007" y1="106"/>
      <line y2="167" fill="none" x1="1006" clip-path="url(#clipPath1)" x2="1006" y1="165"/>
      <line y2="166" fill="none" x1="1005" clip-path="url(#clipPath1)" x2="1007" y1="166"/>
      <line y2="-73" fill="none" x1="1066" clip-path="url(#clipPath1)" x2="1066" y1="-75"/>
      <line y2="-74" fill="none" x1="1065" clip-path="url(#clipPath1)" x2="1067" y1="-74"/>
      <line y2="-13" fill="none" x1="1066" clip-path="url(#clipPath1)" x2="1066" y1="-15"/>
      <line y2="-14" fill="none" x1="1065" clip-path="url(#clipPath1)" x2="1067" y1="-14"/>
      <line y2="47" fill="none" x1="1066" clip-path="url(#clipPath1)" x2="1066" y1="45"/>
      <line y2="46" fill="none" x1="1065" clip-path="url(#clipPath1)" x2="1067" y1="46"/>
      <line y2="107" fill="none" x1="1066" clip-path="url(#clipPath1)" x2="1066" y1="105"/>
      <line y2="106" fill="none" x1="1065" clip-path="url(#clipPath1)" x2="1067" y1="106"/>
      <line y2="167" fill="none" x1="1066" clip-path="url(#clipPath1)" x2="1066" y1="165"/>
      <line y2="166" fill="none" x1="1065" clip-path="url(#clipPath1)" x2="1067" y1="166"/>
      <line y2="-73" fill="none" x1="1126" clip-path="url(#clipPath1)" x2="1126" y1="-75"/>
      <line y2="-74" fill="none" x1="1125" clip-path="url(#clipPath1)" x2="1127" y1="-74"/>
      <line y2="-13" fill="none" x1="1126" clip-path="url(#clipPath1)" x2="1126" y1="-15"/>
      <line y2="-14" fill="none" x1="1125" clip-path="url(#clipPath1)" x2="1127" y1="-14"/>
      <line y2="47" fill="none" x1="1126" clip-path="url(#clipPath1)" x2="1126" y1="45"/>
      <line y2="46" fill="none" x1="1125" clip-path="url(#clipPath1)" x2="1127" y1="46"/>
      <line y2="107" fill="none" x1="1126" clip-path="url(#clipPath1)" x2="1126" y1="105"/>
      <line y2="106" fill="none" x1="1125" clip-path="url(#clipPath1)" x2="1127" y1="106"/>
      <line y2="167" fill="none" x1="1126" clip-path="url(#clipPath1)" x2="1126" y1="165"/>
      <line y2="166" fill="none" x1="1125" clip-path="url(#clipPath1)" x2="1127" y1="166"/>
      <line y2="-73" fill="none" x1="1186" clip-path="url(#clipPath1)" x2="1186" y1="-75"/>
      <line y2="-74" fill="none" x1="1185" clip-path="url(#clipPath1)" x2="1187" y1="-74"/>
      <line y2="-13" fill="none" x1="1186" clip-path="url(#clipPath1)" x2="1186" y1="-15"/>
      <line y2="-14" fill="none" x1="1185" clip-path="url(#clipPath1)" x2="1187" y1="-14"/>
      <line y2="47" fill="none" x1="1186" clip-path="url(#clipPath1)" x2="1186" y1="45"/>
      <line y2="46" fill="none" x1="1185" clip-path="url(#clipPath1)" x2="1187" y1="46"/>
      <line y2="107" fill="none" x1="1186" clip-path="url(#clipPath1)" x2="1186" y1="105"/>
      <line y2="106" fill="none" x1="1185" clip-path="url(#clipPath1)" x2="1187" y1="106"/>
      <line y2="167" fill="none" x1="1186" clip-path="url(#clipPath1)" x2="1186" y1="165"/>
      <line y2="166" fill="none" x1="1185" clip-path="url(#clipPath1)" x2="1187" y1="166"/>
      <line y2="-73" fill="none" x1="1246" clip-path="url(#clipPath1)" x2="1246" y1="-75"/>
      <line y2="-74" fill="none" x1="1245" clip-path="url(#clipPath1)" x2="1247" y1="-74"/>
      <line y2="-13" fill="none" x1="1246" clip-path="url(#clipPath1)" x2="1246" y1="-15"/>
      <line y2="-14" fill="none" x1="1245" clip-path="url(#clipPath1)" x2="1247" y1="-14"/>
      <line y2="47" fill="none" x1="1246" clip-path="url(#clipPath1)" x2="1246" y1="45"/>
      <line y2="46" fill="none" x1="1245" clip-path="url(#clipPath1)" x2="1247" y1="46"/>
      <line y2="107" fill="none" x1="1246" clip-path="url(#clipPath1)" x2="1246" y1="105"/>
      <line y2="106" fill="none" x1="1245" clip-path="url(#clipPath1)" x2="1247" y1="106"/>
      <line y2="167" fill="none" x1="1246" clip-path="url(#clipPath1)" x2="1246" y1="165"/>
      <line y2="166" fill="none" x1="1245" clip-path="url(#clipPath1)" x2="1247" y1="166"/>
      <line y2="-73" fill="none" x1="1306" clip-path="url(#clipPath1)" x2="1306" y1="-75"/>
      <line y2="-74" fill="none" x1="1305" clip-path="url(#clipPath1)" x2="1307" y1="-74"/>
      <line y2="-13" fill="none" x1="1306" clip-path="url(#clipPath1)" x2="1306" y1="-15"/>
      <line y2="-14" fill="none" x1="1305" clip-path="url(#clipPath1)" x2="1307" y1="-14"/>
      <line y2="47" fill="none" x1="1306" clip-path="url(#clipPath1)" x2="1306" y1="45"/>
      <line y2="46" fill="none" x1="1305" clip-path="url(#clipPath1)" x2="1307" y1="46"/>
      <line y2="107" fill="none" x1="1306" clip-path="url(#clipPath1)" x2="1306" y1="105"/>
      <line y2="106" fill="none" x1="1305" clip-path="url(#clipPath1)" x2="1307" y1="106"/>
      <line y2="167" fill="none" x1="1306" clip-path="url(#clipPath1)" x2="1306" y1="165"/>
      <line y2="166" fill="none" x1="1305" clip-path="url(#clipPath1)" x2="1307" y1="166"/>
      <line y2="-73" fill="none" x1="1366" clip-path="url(#clipPath1)" x2="1366" y1="-75"/>
      <line y2="-74" fill="none" x1="1365" clip-path="url(#clipPath1)" x2="1367" y1="-74"/>
      <line y2="-13" fill="none" x1="1366" clip-path="url(#clipPath1)" x2="1366" y1="-15"/>
      <line y2="-14" fill="none" x1="1365" clip-path="url(#clipPath1)" x2="1367" y1="-14"/>
      <line y2="47" fill="none" x1="1366" clip-path="url(#clipPath1)" x2="1366" y1="45"/>
      <line y2="46" fill="none" x1="1365" clip-path="url(#clipPath1)" x2="1367" y1="46"/>
      <line y2="107" fill="none" x1="1366" clip-path="url(#clipPath1)" x2="1366" y1="105"/>
      <line y2="106" fill="none" x1="1365" clip-path="url(#clipPath1)" x2="1367" y1="106"/>
      <line y2="167" fill="none" x1="1366" clip-path="url(#clipPath1)" x2="1366" y1="165"/>
      <line y2="166" fill="none" x1="1365" clip-path="url(#clipPath1)" x2="1367" y1="166"/>
      <line y2="-73" fill="none" x1="1426" clip-path="url(#clipPath1)" x2="1426" y1="-75"/>
      <line y2="-74" fill="none" x1="1425" clip-path="url(#clipPath1)" x2="1427" y1="-74"/>
      <line y2="-13" fill="none" x1="1426" clip-path="url(#clipPath1)" x2="1426" y1="-15"/>
      <line y2="-14" fill="none" x1="1425" clip-path="url(#clipPath1)" x2="1427" y1="-14"/>
      <line y2="47" fill="none" x1="1426" clip-path="url(#clipPath1)" x2="1426" y1="45"/>
      <line y2="46" fill="none" x1="1425" clip-path="url(#clipPath1)" x2="1427" y1="46"/>
      <line y2="107" fill="none" x1="1426" clip-path="url(#clipPath1)" x2="1426" y1="105"/>
      <line y2="106" fill="none" x1="1425" clip-path="url(#clipPath1)" x2="1427" y1="106"/>
      <line y2="167" fill="none" x1="1426" clip-path="url(#clipPath1)" x2="1426" y1="165"/>
      <line y2="166" fill="none" x1="1425" clip-path="url(#clipPath1)" x2="1427" y1="166"/>
      <line y2="-73" fill="none" x1="1486" clip-path="url(#clipPath1)" x2="1486" y1="-75"/>
      <line y2="-74" fill="none" x1="1485" clip-path="url(#clipPath1)" x2="1487" y1="-74"/>
      <line y2="-13" fill="none" x1="1486" clip-path="url(#clipPath1)" x2="1486" y1="-15"/>
      <line y2="-14" fill="none" x1="1485" clip-path="url(#clipPath1)" x2="1487" y1="-14"/>
      <line y2="47" fill="none" x1="1486" clip-path="url(#clipPath1)" x2="1486" y1="45"/>
      <line y2="46" fill="none" x1="1485" clip-path="url(#clipPath1)" x2="1487" y1="46"/>
      <line y2="107" fill="none" x1="1486" clip-path="url(#clipPath1)" x2="1486" y1="105"/>
      <line y2="106" fill="none" x1="1485" clip-path="url(#clipPath1)" x2="1487" y1="106"/>
      <line y2="167" fill="none" x1="1486" clip-path="url(#clipPath1)" x2="1486" y1="165"/>
      <line y2="166" fill="none" x1="1485" clip-path="url(#clipPath1)" x2="1487" y1="166"/>
      <line y2="-73" fill="none" x1="1546" clip-path="url(#clipPath1)" x2="1546" y1="-75"/>
      <line y2="-74" fill="none" x1="1545" clip-path="url(#clipPath1)" x2="1547" y1="-74"/>
      <line y2="-13" fill="none" x1="1546" clip-path="url(#clipPath1)" x2="1546" y1="-15"/>
      <line y2="-14" fill="none" x1="1545" clip-path="url(#clipPath1)" x2="1547" y1="-14"/>
      <line y2="47" fill="none" x1="1546" clip-path="url(#clipPath1)" x2="1546" y1="45"/>
      <line y2="46" fill="none" x1="1545" clip-path="url(#clipPath1)" x2="1547" y1="46"/>
      <line y2="107" fill="none" x1="1546" clip-path="url(#clipPath1)" x2="1546" y1="105"/>
      <line y2="106" fill="none" x1="1545" clip-path="url(#clipPath1)" x2="1547" y1="106"/>
      <line y2="167" fill="none" x1="1546" clip-path="url(#clipPath1)" x2="1546" y1="165"/>
      <line y2="166" fill="none" x1="1545" clip-path="url(#clipPath1)" x2="1547" y1="166"/>
      <line y2="-73" fill="none" x1="1606" clip-path="url(#clipPath1)" x2="1606" y1="-75"/>
      <line y2="-74" fill="none" x1="1605" clip-path="url(#clipPath1)" x2="1607" y1="-74"/>
      <line y2="-13" fill="none" x1="1606" clip-path="url(#clipPath1)" x2="1606" y1="-15"/>
      <line y2="-14" fill="none" x1="1605" clip-path="url(#clipPath1)" x2="1607" y1="-14"/>
      <line y2="47" fill="none" x1="1606" clip-path="url(#clipPath1)" x2="1606" y1="45"/>
      <line y2="46" fill="none" x1="1605" clip-path="url(#clipPath1)" x2="1607" y1="46"/>
      <line y2="107" fill="none" x1="1606" clip-path="url(#clipPath1)" x2="1606" y1="105"/>
      <line y2="106" fill="none" x1="1605" clip-path="url(#clipPath1)" x2="1607" y1="106"/>
      <line y2="167" fill="none" x1="1606" clip-path="url(#clipPath1)" x2="1606" y1="165"/>
      <line y2="166" fill="none" x1="1605" clip-path="url(#clipPath1)" x2="1607" y1="166"/>
      <line y2="-73" fill="none" x1="1666" clip-path="url(#clipPath1)" x2="1666" y1="-75"/>
      <line y2="-74" fill="none" x1="1665" clip-path="url(#clipPath1)" x2="1667" y1="-74"/>
      <line y2="-13" fill="none" x1="1666" clip-path="url(#clipPath1)" x2="1666" y1="-15"/>
      <line y2="-14" fill="none" x1="1665" clip-path="url(#clipPath1)" x2="1667" y1="-14"/>
      <line y2="47" fill="none" x1="1666" clip-path="url(#clipPath1)" x2="1666" y1="45"/>
      <line y2="46" fill="none" x1="1665" clip-path="url(#clipPath1)" x2="1667" y1="46"/>
      <line y2="107" fill="none" x1="1666" clip-path="url(#clipPath1)" x2="1666" y1="105"/>
      <line y2="106" fill="none" x1="1665" clip-path="url(#clipPath1)" x2="1667" y1="106"/>
      <line y2="167" fill="none" x1="1666" clip-path="url(#clipPath1)" x2="1666" y1="165"/>
      <line y2="166" fill="none" x1="1665" clip-path="url(#clipPath1)" x2="1667" y1="166"/>
      <line y2="-73" fill="none" x1="1726" clip-path="url(#clipPath1)" x2="1726" y1="-75"/>
      <line y2="-74" fill="none" x1="1725" clip-path="url(#clipPath1)" x2="1727" y1="-74"/>
      <line y2="-13" fill="none" x1="1726" clip-path="url(#clipPath1)" x2="1726" y1="-15"/>
      <line y2="-14" fill="none" x1="1725" clip-path="url(#clipPath1)" x2="1727" y1="-14"/>
      <line y2="47" fill="none" x1="1726" clip-path="url(#clipPath1)" x2="1726" y1="45"/>
      <line y2="46" fill="none" x1="1725" clip-path="url(#clipPath1)" x2="1727" y1="46"/>
      <line y2="107" fill="none" x1="1726" clip-path="url(#clipPath1)" x2="1726" y1="105"/>
      <line y2="106" fill="none" x1="1725" clip-path="url(#clipPath1)" x2="1727" y1="106"/>
      <line y2="167" fill="none" x1="1726" clip-path="url(#clipPath1)" x2="1726" y1="165"/>
      <line y2="166" fill="none" x1="1725" clip-path="url(#clipPath1)" x2="1727" y1="166"/>
    </g>
    <g fill="rgb(255,204,0)" text-rendering="geometricPrecision" shape-rendering="geometricPrecision" transform="matrix(2,0,0,2,-314,-2354)" stroke="rgb(255,204,0)">
      <rect x="165" width="146" height="60" y="1185" clip-path="url(#clipPath2)" stroke="none"/>
    </g>
    <g text-rendering="geometricPrecision" stroke-miterlimit="1.45" shape-rendering="geometricPrecision" transform="matrix(2,0,0,2,-314,-2354)" stroke-linecap="butt">
      <rect fill="none" x="165" width="146" height="60" y="1185" clip-path="url(#clipPath2)"/>
      <text x="186.0713" xml:space="preserve" y="1205.1855" clip-path="url(#clipPath2)" font-family="sans-serif" stroke="none">Define the model</text>
      <text x="185.1543" xml:space="preserve" y="1219.1543" clip-path="url(#clipPath2)" font-family="sans-serif" stroke="none">with a BaseModel</text>
      <text x="185.8721" xml:space="preserve" y="1233.123" clip-path="url(#clipPath2)" font-family="sans-serif" stroke="none">class in model.py</text>
    </g>
    <g fill="rgb(255,204,0)" text-rendering="geometricPrecision" shape-rendering="geometricPrecision" transform="matrix(2,0,0,2,-314,-2354)" stroke="rgb(255,204,0)">
      <rect x="335" width="146" height="60" y="1185" clip-path="url(#clipPath2)" stroke="none"/>
    </g>
    <g text-rendering="geometricPrecision" stroke-miterlimit="1.45" shape-rendering="geometricPrecision" transform="matrix(2,0,0,2,-314,-2354)" stroke-linecap="butt">
      <rect fill="none" x="335" width="146" height="60" y="1185" clip-path="url(#clipPath2)"/>
      <text x="344.4932" xml:space="preserve" y="1205.1855" clip-path="url(#clipPath2)" font-family="sans-serif" stroke="none">Read your input data</text>
      <text x="357.7412" xml:space="preserve" y="1219.1543" clip-path="url(#clipPath2)" font-family="sans-serif" stroke="none">with dataloaders</text>
      <text x="377.8418" xml:space="preserve" y="1233.123" clip-path="url(#clipPath2)" font-family="sans-serif" stroke="none">in data.py</text>
    </g>
    <g fill="rgb(255,204,0)" text-rendering="geometricPrecision" shape-rendering="geometricPrecision" transform="matrix(2,0,0,2,-314,-2354)" stroke="rgb(255,204,0)">
      <rect x="505" width="146" height="60" y="1185" clip-path="url(#clipPath2)" stroke="none"/>
    </g>
    <g text-rendering="geometricPrecision" stroke-miterlimit="1.45" shape-rendering="geometricPrecision" transform="matrix(2,0,0,2,-314,-2354)" stroke-linecap="butt">
      <rect fill="none" x="505" width="146" height="60" y="1185" clip-path="url(#clipPath2)"/>
      <text x="522.585" xml:space="preserve" y="1212.1699" clip-path="url(#clipPath2)" font-family="sans-serif" stroke="none">Implement helper </text>
      <text x="534.3887" xml:space="preserve" y="1226.1387" clip-path="url(#clipPath2)" font-family="sans-serif" stroke="none">ogic in utils.py</text>
    </g>
    <g fill="rgb(255,204,0)" text-rendering="geometricPrecision" shape-rendering="geometricPrecision" transform="matrix(2,0,0,2,-314,-2354)" stroke="rgb(255,204,0)">
      <rect x="675" width="146" height="60" y="1185" clip-path="url(#clipPath2)" stroke="none"/>
    </g>
    <g text-rendering="geometricPrecision" stroke-miterlimit="1.45" shape-rendering="geometricPrecision" transform="matrix(2,0,0,2,-314,-2354)" stroke-linecap="butt">
      <rect fill="none" x="675" width="146" height="60" y="1185" clip-path="url(#clipPath2)"/>
      <text x="716.5059" xml:space="preserve" y="1212.1699" clip-path="url(#clipPath2)" font-family="sans-serif" stroke="none">Customize</text>
      <text x="685.2461" xml:space="preserve" y="1226.1387" clip-path="url(#clipPath2)" font-family="sans-serif" stroke="none">configs/params.yaml</text>
    </g>
    <g fill="rgb(255,204,0)" text-rendering="geometricPrecision" shape-rendering="geometricPrecision" transform="matrix(2,0,0,2,-314,-2354)" stroke="rgb(255,204,0)">
      <rect x="845" width="146" height="60" y="1185" clip-path="url(#clipPath2)" stroke="none"/>
    </g>
    <g text-rendering="geometricPrecision" stroke-miterlimit="1.45" shape-rendering="geometricPrecision" transform="matrix(2,0,0,2,-314,-2354)" stroke-linecap="butt">
      <rect fill="none" x="845" width="146" height="60" y="1185" clip-path="url(#clipPath2)"/>
      <text x="864.6445" xml:space="preserve" y="1205.1855" clip-path="url(#clipPath2)" font-family="sans-serif" stroke="none">Execute run.py to</text>
      <text x="855.1582" xml:space="preserve" y="1219.1543" clip-path="url(#clipPath2)" font-family="sans-serif" stroke="none">validate and compile</text>
      <text x="888.1318" xml:space="preserve" y="1233.123" clip-path="url(#clipPath2)" font-family="sans-serif" stroke="none">your code</text>
      <path fill="none" d="M311 1215 L327 1215" clip-path="url(#clipPath2)"/>
      <path d="M335 1215 L323 1210 L326 1215 L323 1220 Z" clip-path="url(#clipPath2)" stroke="none"/>
      <path fill="none" d="M481 1215 L497 1215" clip-path="url(#clipPath2)"/>
      <path d="M505 1215 L493 1210 L496 1215 L493 1220 Z" clip-path="url(#clipPath2)" stroke="none"/>
      <path fill="none" d="M651 1215 L667 1215" clip-path="url(#clipPath2)"/>
      <path d="M675 1215 L663 1210 L666 1215 L663 1220 Z" clip-path="url(#clipPath2)" stroke="none"/>
      <path fill="none" d="M821 1215 L837 1215" clip-path="url(#clipPath2)"/>
      <path d="M845 1215 L833 1210 L836 1215 L833 1220 Z" clip-path="url(#clipPath2)" stroke="none"/>
    </g>
  </g>
</svg>
