<?xml version="1.0" encoding="UTF-8"?><svg xmlns="http://www.w3.org/2000/svg" xmlns:xlink="http://www.w3.org/1999/xlink" fill-opacity="1" color-rendering="auto" color-interpolation="auto" text-rendering="auto" stroke="black" stroke-linecap="square" width="1092" stroke-miterlimit="10" shape-rendering="auto" stroke-opacity="1" fill="black" stroke-dasharray="none" font-weight="normal" stroke-width="1" height="462" font-family="'Dialog'" font-style="normal" stroke-linejoin="miter" font-size="12px" stroke-dashoffset="0" image-rendering="auto">
  <!--Generated by ySVG 2.6-->
  <defs id="genericDefs"/>
  <g>
    <defs id="defs1">
      <clipPath clipPathUnits="userSpaceOnUse" id="clipPath1">
        <path d="M0 0 L1092 0 L1092 462 L0 462 L0 0 Z"/>
      </clipPath>
      <clipPath clipPathUnits="userSpaceOnUse" id="clipPath2">
        <path d="M350 824 L896 824 L896 1055 L350 1055 L350 824 Z"/>
      </clipPath>
    </defs>
    <g fill="white" text-rendering="geometricPrecision" shape-rendering="geometricPrecision" transform="scale(2,2) translate(-350,-824)" stroke="white">
      <rect x="350" width="546" height="231" y="824" clip-path="url(#clipPath2)" stroke="none"/>
    </g>
    <g fill="gray" text-rendering="geometricPrecision" shape-rendering="geometricPrecision" stroke="gray">
      <line y2="-87" fill="none" x1="-100" clip-path="url(#clipPath1)" x2="-100" y1="-89"/>
      <line y2="-88" fill="none" x1="-101" clip-path="url(#clipPath1)" x2="-99" y1="-88"/>
      <line y2="-27" fill="none" x1="-100" clip-path="url(#clipPath1)" x2="-100" y1="-29"/>
      <line y2="-28" fill="none" x1="-101" clip-path="url(#clipPath1)" x2="-99" y1="-28"/>
      <line y2="33" fill="none" x1="-100" clip-path="url(#clipPath1)" x2="-100" y1="31"/>
      <line y2="32" fill="none" x1="-101" clip-path="url(#clipPath1)" x2="-99" y1="32"/>
      <line y2="93" fill="none" x1="-100" clip-path="url(#clipPath1)" x2="-100" y1="91"/>
      <line y2="92" fill="none" x1="-101" clip-path="url(#clipPath1)" x2="-99" y1="92"/>
      <line y2="153" fill="none" x1="-100" clip-path="url(#clipPath1)" x2="-100" y1="151"/>
      <line y2="152" fill="none" x1="-101" clip-path="url(#clipPath1)" x2="-99" y1="152"/>
      <line y2="213" fill="none" x1="-100" clip-path="url(#clipPath1)" x2="-100" y1="211"/>
      <line y2="212" fill="none" x1="-101" clip-path="url(#clipPath1)" x2="-99" y1="212"/>
      <line y2="273" fill="none" x1="-100" clip-path="url(#clipPath1)" x2="-100" y1="271"/>
      <line y2="272" fill="none" x1="-101" clip-path="url(#clipPath1)" x2="-99" y1="272"/>
      <line y2="333" fill="none" x1="-100" clip-path="url(#clipPath1)" x2="-100" y1="331"/>
      <line y2="332" fill="none" x1="-101" clip-path="url(#clipPath1)" x2="-99" y1="332"/>
      <line y2="393" fill="none" x1="-100" clip-path="url(#clipPath1)" x2="-100" y1="391"/>
      <line y2="392" fill="none" x1="-101" clip-path="url(#clipPath1)" x2="-99" y1="392"/>
      <line y2="453" fill="none" x1="-100" clip-path="url(#clipPath1)" x2="-100" y1="451"/>
      <line y2="452" fill="none" x1="-101" clip-path="url(#clipPath1)" x2="-99" y1="452"/>
      <line y2="513" fill="none" x1="-100" clip-path="url(#clipPath1)" x2="-100" y1="511"/>
      <line y2="512" fill="none" x1="-101" clip-path="url(#clipPath1)" x2="-99" y1="512"/>
      <line y2="-87" fill="none" x1="-40" clip-path="url(#clipPath1)" x2="-40" y1="-89"/>
      <line y2="-88" fill="none" x1="-41" clip-path="url(#clipPath1)" x2="-39" y1="-88"/>
      <line y2="-27" fill="none" x1="-40" clip-path="url(#clipPath1)" x2="-40" y1="-29"/>
      <line y2="-28" fill="none" x1="-41" clip-path="url(#clipPath1)" x2="-39" y1="-28"/>
      <line y2="33" fill="none" x1="-40" clip-path="url(#clipPath1)" x2="-40" y1="31"/>
      <line y2="32" fill="none" x1="-41" clip-path="url(#clipPath1)" x2="-39" y1="32"/>
      <line y2="93" fill="none" x1="-40" clip-path="url(#clipPath1)" x2="-40" y1="91"/>
      <line y2="92" fill="none" x1="-41" clip-path="url(#clipPath1)" x2="-39" y1="92"/>
      <line y2="153" fill="none" x1="-40" clip-path="url(#clipPath1)" x2="-40" y1="151"/>
      <line y2="152" fill="none" x1="-41" clip-path="url(#clipPath1)" x2="-39" y1="152"/>
      <line y2="213" fill="none" x1="-40" clip-path="url(#clipPath1)" x2="-40" y1="211"/>
      <line y2="212" fill="none" x1="-41" clip-path="url(#clipPath1)" x2="-39" y1="212"/>
      <line y2="273" fill="none" x1="-40" clip-path="url(#clipPath1)" x2="-40" y1="271"/>
      <line y2="272" fill="none" x1="-41" clip-path="url(#clipPath1)" x2="-39" y1="272"/>
      <line y2="333" fill="none" x1="-40" clip-path="url(#clipPath1)" x2="-40" y1="331"/>
      <line y2="332" fill="none" x1="-41" clip-path="url(#clipPath1)" x2="-39" y1="332"/>
      <line y2="393" fill="none" x1="-40" clip-path="url(#clipPath1)" x2="-40" y1="391"/>
      <line y2="392" fill="none" x1="-41" clip-path="url(#clipPath1)" x2="-39" y1="392"/>
      <line y2="453" fill="none" x1="-40" clip-path="url(#clipPath1)" x2="-40" y1="451"/>
      <line y2="452" fill="none" x1="-41" clip-path="url(#clipPath1)" x2="-39" y1="452"/>
      <line y2="513" fill="none" x1="-40" clip-path="url(#clipPath1)" x2="-40" y1="511"/>
      <line y2="512" fill="none" x1="-41" clip-path="url(#clipPath1)" x2="-39" y1="512"/>
      <line y2="-87" fill="none" x1="20" clip-path="url(#clipPath1)" x2="20" y1="-89"/>
      <line y2="-88" fill="none" x1="19" clip-path="url(#clipPath1)" x2="21" y1="-88"/>
      <line y2="-27" fill="none" x1="20" clip-path="url(#clipPath1)" x2="20" y1="-29"/>
      <line y2="-28" fill="none" x1="19" clip-path="url(#clipPath1)" x2="21" y1="-28"/>
      <line y2="33" fill="none" x1="20" clip-path="url(#clipPath1)" x2="20" y1="31"/>
      <line y2="32" fill="none" x1="19" clip-path="url(#clipPath1)" x2="21" y1="32"/>
      <line y2="93" fill="none" x1="20" clip-path="url(#clipPath1)" x2="20" y1="91"/>
      <line y2="92" fill="none" x1="19" clip-path="url(#clipPath1)" x2="21" y1="92"/>
      <line y2="153" fill="none" x1="20" clip-path="url(#clipPath1)" x2="20" y1="151"/>
      <line y2="152" fill="none" x1="19" clip-path="url(#clipPath1)" x2="21" y1="152"/>
      <line y2="213" fill="none" x1="20" clip-path="url(#clipPath1)" x2="20" y1="211"/>
      <line y2="212" fill="none" x1="19" clip-path="url(#clipPath1)" x2="21" y1="212"/>
      <line y2="273" fill="none" x1="20" clip-path="url(#clipPath1)" x2="20" y1="271"/>
      <line y2="272" fill="none" x1="19" clip-path="url(#clipPath1)" x2="21" y1="272"/>
      <line y2="333" fill="none" x1="20" clip-path="url(#clipPath1)" x2="20" y1="331"/>
      <line y2="332" fill="none" x1="19" clip-path="url(#clipPath1)" x2="21" y1="332"/>
      <line y2="393" fill="none" x1="20" clip-path="url(#clipPath1)" x2="20" y1="391"/>
      <line y2="392" fill="none" x1="19" clip-path="url(#clipPath1)" x2="21" y1="392"/>
      <line y2="453" fill="none" x1="20" clip-path="url(#clipPath1)" x2="20" y1="451"/>
      <line y2="452" fill="none" x1="19" clip-path="url(#clipPath1)" x2="21" y1="452"/>
      <line y2="513" fill="none" x1="20" clip-path="url(#clipPath1)" x2="20" y1="511"/>
      <line y2="512" fill="none" x1="19" clip-path="url(#clipPath1)" x2="21" y1="512"/>
      <line y2="-87" fill="none" x1="80" clip-path="url(#clipPath1)" x2="80" y1="-89"/>
      <line y2="-88" fill="none" x1="79" clip-path="url(#clipPath1)" x2="81" y1="-88"/>
      <line y2="-27" fill="none" x1="80" clip-path="url(#clipPath1)" x2="80" y1="-29"/>
      <line y2="-28" fill="none" x1="79" clip-path="url(#clipPath1)" x2="81" y1="-28"/>
      <line y2="33" fill="none" x1="80" clip-path="url(#clipPath1)" x2="80" y1="31"/>
      <line y2="32" fill="none" x1="79" clip-path="url(#clipPath1)" x2="81" y1="32"/>
      <line y2="93" fill="none" x1="80" clip-path="url(#clipPath1)" x2="80" y1="91"/>
      <line y2="92" fill="none" x1="79" clip-path="url(#clipPath1)" x2="81" y1="92"/>
      <line y2="153" fill="none" x1="80" clip-path="url(#clipPath1)" x2="80" y1="151"/>
      <line y2="152" fill="none" x1="79" clip-path="url(#clipPath1)" x2="81" y1="152"/>
      <line y2="213" fill="none" x1="80" clip-path="url(#clipPath1)" x2="80" y1="211"/>
      <line y2="212" fill="none" x1="79" clip-path="url(#clipPath1)" x2="81" y1="212"/>
      <line y2="273" fill="none" x1="80" clip-path="url(#clipPath1)" x2="80" y1="271"/>
      <line y2="272" fill="none" x1="79" clip-path="url(#clipPath1)" x2="81" y1="272"/>
      <line y2="333" fill="none" x1="80" clip-path="url(#clipPath1)" x2="80" y1="331"/>
      <line y2="332" fill="none" x1="79" clip-path="url(#clipPath1)" x2="81" y1="332"/>
      <line y2="393" fill="none" x1="80" clip-path="url(#clipPath1)" x2="80" y1="391"/>
      <line y2="392" fill="none" x1="79" clip-path="url(#clipPath1)" x2="81" y1="392"/>
      <line y2="453" fill="none" x1="80" clip-path="url(#clipPath1)" x2="80" y1="451"/>
      <line y2="452" fill="none" x1="79" clip-path="url(#clipPath1)" x2="81" y1="452"/>
      <line y2="513" fill="none" x1="80" clip-path="url(#clipPath1)" x2="80" y1="511"/>
      <line y2="512" fill="none" x1="79" clip-path="url(#clipPath1)" x2="81" y1="512"/>
      <line y2="-87" fill="none" x1="140" clip-path="url(#clipPath1)" x2="140" y1="-89"/>
      <line y2="-88" fill="none" x1="139" clip-path="url(#clipPath1)" x2="141" y1="-88"/>
      <line y2="-27" fill="none" x1="140" clip-path="url(#clipPath1)" x2="140" y1="-29"/>
      <line y2="-28" fill="none" x1="139" clip-path="url(#clipPath1)" x2="141" y1="-28"/>
      <line y2="33" fill="none" x1="140" clip-path="url(#clipPath1)" x2="140" y1="31"/>
      <line y2="32" fill="none" x1="139" clip-path="url(#clipPath1)" x2="141" y1="32"/>
      <line y2="93" fill="none" x1="140" clip-path="url(#clipPath1)" x2="140" y1="91"/>
      <line y2="92" fill="none" x1="139" clip-path="url(#clipPath1)" x2="141" y1="92"/>
      <line y2="153" fill="none" x1="140" clip-path="url(#clipPath1)" x2="140" y1="151"/>
      <line y2="152" fill="none" x1="139" clip-path="url(#clipPath1)" x2="141" y1="152"/>
      <line y2="213" fill="none" x1="140" clip-path="url(#clipPath1)" x2="140" y1="211"/>
      <line y2="212" fill="none" x1="139" clip-path="url(#clipPath1)" x2="141" y1="212"/>
      <line y2="273" fill="none" x1="140" clip-path="url(#clipPath1)" x2="140" y1="271"/>
      <line y2="272" fill="none" x1="139" clip-path="url(#clipPath1)" x2="141" y1="272"/>
      <line y2="333" fill="none" x1="140" clip-path="url(#clipPath1)" x2="140" y1="331"/>
      <line y2="332" fill="none" x1="139" clip-path="url(#clipPath1)" x2="141" y1="332"/>
      <line y2="393" fill="none" x1="140" clip-path="url(#clipPath1)" x2="140" y1="391"/>
      <line y2="392" fill="none" x1="139" clip-path="url(#clipPath1)" x2="141" y1="392"/>
      <line y2="453" fill="none" x1="140" clip-path="url(#clipPath1)" x2="140" y1="451"/>
      <line y2="452" fill="none" x1="139" clip-path="url(#clipPath1)" x2="141" y1="452"/>
      <line y2="513" fill="none" x1="140" clip-path="url(#clipPath1)" x2="140" y1="511"/>
      <line y2="512" fill="none" x1="139" clip-path="url(#clipPath1)" x2="141" y1="512"/>
      <line y2="-87" fill="none" x1="200" clip-path="url(#clipPath1)" x2="200" y1="-89"/>
      <line y2="-88" fill="none" x1="199" clip-path="url(#clipPath1)" x2="201" y1="-88"/>
      <line y2="-27" fill="none" x1="200" clip-path="url(#clipPath1)" x2="200" y1="-29"/>
      <line y2="-28" fill="none" x1="199" clip-path="url(#clipPath1)" x2="201" y1="-28"/>
      <line y2="33" fill="none" x1="200" clip-path="url(#clipPath1)" x2="200" y1="31"/>
      <line y2="32" fill="none" x1="199" clip-path="url(#clipPath1)" x2="201" y1="32"/>
      <line y2="93" fill="none" x1="200" clip-path="url(#clipPath1)" x2="200" y1="91"/>
      <line y2="92" fill="none" x1="199" clip-path="url(#clipPath1)" x2="201" y1="92"/>
      <line y2="153" fill="none" x1="200" clip-path="url(#clipPath1)" x2="200" y1="151"/>
      <line y2="152" fill="none" x1="199" clip-path="url(#clipPath1)" x2="201" y1="152"/>
      <line y2="213" fill="none" x1="200" clip-path="url(#clipPath1)" x2="200" y1="211"/>
      <line y2="212" fill="none" x1="199" clip-path="url(#clipPath1)" x2="201" y1="212"/>
      <line y2="273" fill="none" x1="200" clip-path="url(#clipPath1)" x2="200" y1="271"/>
      <line y2="272" fill="none" x1="199" clip-path="url(#clipPath1)" x2="201" y1="272"/>
      <line y2="333" fill="none" x1="200" clip-path="url(#clipPath1)" x2="200" y1="331"/>
      <line y2="332" fill="none" x1="199" clip-path="url(#clipPath1)" x2="201" y1="332"/>
      <line y2="393" fill="none" x1="200" clip-path="url(#clipPath1)" x2="200" y1="391"/>
      <line y2="392" fill="none" x1="199" clip-path="url(#clipPath1)" x2="201" y1="392"/>
      <line y2="453" fill="none" x1="200" clip-path="url(#clipPath1)" x2="200" y1="451"/>
      <line y2="452" fill="none" x1="199" clip-path="url(#clipPath1)" x2="201" y1="452"/>
      <line y2="513" fill="none" x1="200" clip-path="url(#clipPath1)" x2="200" y1="511"/>
      <line y2="512" fill="none" x1="199" clip-path="url(#clipPath1)" x2="201" y1="512"/>
      <line y2="-87" fill="none" x1="260" clip-path="url(#clipPath1)" x2="260" y1="-89"/>
      <line y2="-88" fill="none" x1="259" clip-path="url(#clipPath1)" x2="261" y1="-88"/>
      <line y2="-27" fill="none" x1="260" clip-path="url(#clipPath1)" x2="260" y1="-29"/>
      <line y2="-28" fill="none" x1="259" clip-path="url(#clipPath1)" x2="261" y1="-28"/>
      <line y2="33" fill="none" x1="260" clip-path="url(#clipPath1)" x2="260" y1="31"/>
      <line y2="32" fill="none" x1="259" clip-path="url(#clipPath1)" x2="261" y1="32"/>
      <line y2="93" fill="none" x1="260" clip-path="url(#clipPath1)" x2="260" y1="91"/>
      <line y2="92" fill="none" x1="259" clip-path="url(#clipPath1)" x2="261" y1="92"/>
      <line y2="153" fill="none" x1="260" clip-path="url(#clipPath1)" x2="260" y1="151"/>
      <line y2="152" fill="none" x1="259" clip-path="url(#clipPath1)" x2="261" y1="152"/>
      <line y2="213" fill="none" x1="260" clip-path="url(#clipPath1)" x2="260" y1="211"/>
      <line y2="212" fill="none" x1="259" clip-path="url(#clipPath1)" x2="261" y1="212"/>
      <line y2="273" fill="none" x1="260" clip-path="url(#clipPath1)" x2="260" y1="271"/>
      <line y2="272" fill="none" x1="259" clip-path="url(#clipPath1)" x2="261" y1="272"/>
      <line y2="333" fill="none" x1="260" clip-path="url(#clipPath1)" x2="260" y1="331"/>
      <line y2="332" fill="none" x1="259" clip-path="url(#clipPath1)" x2="261" y1="332"/>
      <line y2="393" fill="none" x1="260" clip-path="url(#clipPath1)" x2="260" y1="391"/>
      <line y2="392" fill="none" x1="259" clip-path="url(#clipPath1)" x2="261" y1="392"/>
      <line y2="453" fill="none" x1="260" clip-path="url(#clipPath1)" x2="260" y1="451"/>
      <line y2="452" fill="none" x1="259" clip-path="url(#clipPath1)" x2="261" y1="452"/>
      <line y2="513" fill="none" x1="260" clip-path="url(#clipPath1)" x2="260" y1="511"/>
      <line y2="512" fill="none" x1="259" clip-path="url(#clipPath1)" x2="261" y1="512"/>
      <line y2="-87" fill="none" x1="320" clip-path="url(#clipPath1)" x2="320" y1="-89"/>
      <line y2="-88" fill="none" x1="319" clip-path="url(#clipPath1)" x2="321" y1="-88"/>
      <line y2="-27" fill="none" x1="320" clip-path="url(#clipPath1)" x2="320" y1="-29"/>
      <line y2="-28" fill="none" x1="319" clip-path="url(#clipPath1)" x2="321" y1="-28"/>
      <line y2="33" fill="none" x1="320" clip-path="url(#clipPath1)" x2="320" y1="31"/>
      <line y2="32" fill="none" x1="319" clip-path="url(#clipPath1)" x2="321" y1="32"/>
      <line y2="93" fill="none" x1="320" clip-path="url(#clipPath1)" x2="320" y1="91"/>
      <line y2="92" fill="none" x1="319" clip-path="url(#clipPath1)" x2="321" y1="92"/>
      <line y2="153" fill="none" x1="320" clip-path="url(#clipPath1)" x2="320" y1="151"/>
      <line y2="152" fill="none" x1="319" clip-path="url(#clipPath1)" x2="321" y1="152"/>
      <line y2="213" fill="none" x1="320" clip-path="url(#clipPath1)" x2="320" y1="211"/>
      <line y2="212" fill="none" x1="319" clip-path="url(#clipPath1)" x2="321" y1="212"/>
      <line y2="273" fill="none" x1="320" clip-path="url(#clipPath1)" x2="320" y1="271"/>
      <line y2="272" fill="none" x1="319" clip-path="url(#clipPath1)" x2="321" y1="272"/>
      <line y2="333" fill="none" x1="320" clip-path="url(#clipPath1)" x2="320" y1="331"/>
      <line y2="332" fill="none" x1="319" clip-path="url(#clipPath1)" x2="321" y1="332"/>
      <line y2="393" fill="none" x1="320" clip-path="url(#clipPath1)" x2="320" y1="391"/>
      <line y2="392" fill="none" x1="319" clip-path="url(#clipPath1)" x2="321" y1="392"/>
      <line y2="453" fill="none" x1="320" clip-path="url(#clipPath1)" x2="320" y1="451"/>
      <line y2="452" fill="none" x1="319" clip-path="url(#clipPath1)" x2="321" y1="452"/>
      <line y2="513" fill="none" x1="320" clip-path="url(#clipPath1)" x2="320" y1="511"/>
      <line y2="512" fill="none" x1="319" clip-path="url(#clipPath1)" x2="321" y1="512"/>
      <line y2="-87" fill="none" x1="380" clip-path="url(#clipPath1)" x2="380" y1="-89"/>
      <line y2="-88" fill="none" x1="379" clip-path="url(#clipPath1)" x2="381" y1="-88"/>
      <line y2="-27" fill="none" x1="380" clip-path="url(#clipPath1)" x2="380" y1="-29"/>
      <line y2="-28" fill="none" x1="379" clip-path="url(#clipPath1)" x2="381" y1="-28"/>
      <line y2="33" fill="none" x1="380" clip-path="url(#clipPath1)" x2="380" y1="31"/>
      <line y2="32" fill="none" x1="379" clip-path="url(#clipPath1)" x2="381" y1="32"/>
      <line y2="93" fill="none" x1="380" clip-path="url(#clipPath1)" x2="380" y1="91"/>
      <line y2="92" fill="none" x1="379" clip-path="url(#clipPath1)" x2="381" y1="92"/>
      <line y2="153" fill="none" x1="380" clip-path="url(#clipPath1)" x2="380" y1="151"/>
      <line y2="152" fill="none" x1="379" clip-path="url(#clipPath1)" x2="381" y1="152"/>
      <line y2="213" fill="none" x1="380" clip-path="url(#clipPath1)" x2="380" y1="211"/>
      <line y2="212" fill="none" x1="379" clip-path="url(#clipPath1)" x2="381" y1="212"/>
      <line y2="273" fill="none" x1="380" clip-path="url(#clipPath1)" x2="380" y1="271"/>
      <line y2="272" fill="none" x1="379" clip-path="url(#clipPath1)" x2="381" y1="272"/>
      <line y2="333" fill="none" x1="380" clip-path="url(#clipPath1)" x2="380" y1="331"/>
      <line y2="332" fill="none" x1="379" clip-path="url(#clipPath1)" x2="381" y1="332"/>
      <line y2="393" fill="none" x1="380" clip-path="url(#clipPath1)" x2="380" y1="391"/>
      <line y2="392" fill="none" x1="379" clip-path="url(#clipPath1)" x2="381" y1="392"/>
      <line y2="453" fill="none" x1="380" clip-path="url(#clipPath1)" x2="380" y1="451"/>
      <line y2="452" fill="none" x1="379" clip-path="url(#clipPath1)" x2="381" y1="452"/>
      <line y2="513" fill="none" x1="380" clip-path="url(#clipPath1)" x2="380" y1="511"/>
      <line y2="512" fill="none" x1="379" clip-path="url(#clipPath1)" x2="381" y1="512"/>
      <line y2="-87" fill="none" x1="440" clip-path="url(#clipPath1)" x2="440" y1="-89"/>
      <line y2="-88" fill="none" x1="439" clip-path="url(#clipPath1)" x2="441" y1="-88"/>
      <line y2="-27" fill="none" x1="440" clip-path="url(#clipPath1)" x2="440" y1="-29"/>
      <line y2="-28" fill="none" x1="439" clip-path="url(#clipPath1)" x2="441" y1="-28"/>
      <line y2="33" fill="none" x1="440" clip-path="url(#clipPath1)" x2="440" y1="31"/>
      <line y2="32" fill="none" x1="439" clip-path="url(#clipPath1)" x2="441" y1="32"/>
      <line y2="93" fill="none" x1="440" clip-path="url(#clipPath1)" x2="440" y1="91"/>
      <line y2="92" fill="none" x1="439" clip-path="url(#clipPath1)" x2="441" y1="92"/>
      <line y2="153" fill="none" x1="440" clip-path="url(#clipPath1)" x2="440" y1="151"/>
      <line y2="152" fill="none" x1="439" clip-path="url(#clipPath1)" x2="441" y1="152"/>
      <line y2="213" fill="none" x1="440" clip-path="url(#clipPath1)" x2="440" y1="211"/>
      <line y2="212" fill="none" x1="439" clip-path="url(#clipPath1)" x2="441" y1="212"/>
      <line y2="273" fill="none" x1="440" clip-path="url(#clipPath1)" x2="440" y1="271"/>
      <line y2="272" fill="none" x1="439" clip-path="url(#clipPath1)" x2="441" y1="272"/>
      <line y2="333" fill="none" x1="440" clip-path="url(#clipPath1)" x2="440" y1="331"/>
      <line y2="332" fill="none" x1="439" clip-path="url(#clipPath1)" x2="441" y1="332"/>
      <line y2="393" fill="none" x1="440" clip-path="url(#clipPath1)" x2="440" y1="391"/>
      <line y2="392" fill="none" x1="439" clip-path="url(#clipPath1)" x2="441" y1="392"/>
      <line y2="453" fill="none" x1="440" clip-path="url(#clipPath1)" x2="440" y1="451"/>
      <line y2="452" fill="none" x1="439" clip-path="url(#clipPath1)" x2="441" y1="452"/>
      <line y2="513" fill="none" x1="440" clip-path="url(#clipPath1)" x2="440" y1="511"/>
      <line y2="512" fill="none" x1="439" clip-path="url(#clipPath1)" x2="441" y1="512"/>
      <line y2="-87" fill="none" x1="500" clip-path="url(#clipPath1)" x2="500" y1="-89"/>
      <line y2="-88" fill="none" x1="499" clip-path="url(#clipPath1)" x2="501" y1="-88"/>
      <line y2="-27" fill="none" x1="500" clip-path="url(#clipPath1)" x2="500" y1="-29"/>
      <line y2="-28" fill="none" x1="499" clip-path="url(#clipPath1)" x2="501" y1="-28"/>
      <line y2="33" fill="none" x1="500" clip-path="url(#clipPath1)" x2="500" y1="31"/>
      <line y2="32" fill="none" x1="499" clip-path="url(#clipPath1)" x2="501" y1="32"/>
      <line y2="93" fill="none" x1="500" clip-path="url(#clipPath1)" x2="500" y1="91"/>
      <line y2="92" fill="none" x1="499" clip-path="url(#clipPath1)" x2="501" y1="92"/>
      <line y2="153" fill="none" x1="500" clip-path="url(#clipPath1)" x2="500" y1="151"/>
      <line y2="152" fill="none" x1="499" clip-path="url(#clipPath1)" x2="501" y1="152"/>
      <line y2="213" fill="none" x1="500" clip-path="url(#clipPath1)" x2="500" y1="211"/>
      <line y2="212" fill="none" x1="499" clip-path="url(#clipPath1)" x2="501" y1="212"/>
      <line y2="273" fill="none" x1="500" clip-path="url(#clipPath1)" x2="500" y1="271"/>
      <line y2="272" fill="none" x1="499" clip-path="url(#clipPath1)" x2="501" y1="272"/>
      <line y2="333" fill="none" x1="500" clip-path="url(#clipPath1)" x2="500" y1="331"/>
      <line y2="332" fill="none" x1="499" clip-path="url(#clipPath1)" x2="501" y1="332"/>
      <line y2="393" fill="none" x1="500" clip-path="url(#clipPath1)" x2="500" y1="391"/>
      <line y2="392" fill="none" x1="499" clip-path="url(#clipPath1)" x2="501" y1="392"/>
      <line y2="453" fill="none" x1="500" clip-path="url(#clipPath1)" x2="500" y1="451"/>
      <line y2="452" fill="none" x1="499" clip-path="url(#clipPath1)" x2="501" y1="452"/>
      <line y2="513" fill="none" x1="500" clip-path="url(#clipPath1)" x2="500" y1="511"/>
      <line y2="512" fill="none" x1="499" clip-path="url(#clipPath1)" x2="501" y1="512"/>
      <line y2="-87" fill="none" x1="560" clip-path="url(#clipPath1)" x2="560" y1="-89"/>
      <line y2="-88" fill="none" x1="559" clip-path="url(#clipPath1)" x2="561" y1="-88"/>
      <line y2="-27" fill="none" x1="560" clip-path="url(#clipPath1)" x2="560" y1="-29"/>
      <line y2="-28" fill="none" x1="559" clip-path="url(#clipPath1)" x2="561" y1="-28"/>
      <line y2="33" fill="none" x1="560" clip-path="url(#clipPath1)" x2="560" y1="31"/>
      <line y2="32" fill="none" x1="559" clip-path="url(#clipPath1)" x2="561" y1="32"/>
      <line y2="93" fill="none" x1="560" clip-path="url(#clipPath1)" x2="560" y1="91"/>
      <line y2="92" fill="none" x1="559" clip-path="url(#clipPath1)" x2="561" y1="92"/>
      <line y2="153" fill="none" x1="560" clip-path="url(#clipPath1)" x2="560" y1="151"/>
      <line y2="152" fill="none" x1="559" clip-path="url(#clipPath1)" x2="561" y1="152"/>
      <line y2="213" fill="none" x1="560" clip-path="url(#clipPath1)" x2="560" y1="211"/>
      <line y2="212" fill="none" x1="559" clip-path="url(#clipPath1)" x2="561" y1="212"/>
      <line y2="273" fill="none" x1="560" clip-path="url(#clipPath1)" x2="560" y1="271"/>
      <line y2="272" fill="none" x1="559" clip-path="url(#clipPath1)" x2="561" y1="272"/>
      <line y2="333" fill="none" x1="560" clip-path="url(#clipPath1)" x2="560" y1="331"/>
      <line y2="332" fill="none" x1="559" clip-path="url(#clipPath1)" x2="561" y1="332"/>
      <line y2="393" fill="none" x1="560" clip-path="url(#clipPath1)" x2="560" y1="391"/>
      <line y2="392" fill="none" x1="559" clip-path="url(#clipPath1)" x2="561" y1="392"/>
      <line y2="453" fill="none" x1="560" clip-path="url(#clipPath1)" x2="560" y1="451"/>
      <line y2="452" fill="none" x1="559" clip-path="url(#clipPath1)" x2="561" y1="452"/>
      <line y2="513" fill="none" x1="560" clip-path="url(#clipPath1)" x2="560" y1="511"/>
      <line y2="512" fill="none" x1="559" clip-path="url(#clipPath1)" x2="561" y1="512"/>
      <line y2="-87" fill="none" x1="620" clip-path="url(#clipPath1)" x2="620" y1="-89"/>
      <line y2="-88" fill="none" x1="619" clip-path="url(#clipPath1)" x2="621" y1="-88"/>
      <line y2="-27" fill="none" x1="620" clip-path="url(#clipPath1)" x2="620" y1="-29"/>
      <line y2="-28" fill="none" x1="619" clip-path="url(#clipPath1)" x2="621" y1="-28"/>
      <line y2="33" fill="none" x1="620" clip-path="url(#clipPath1)" x2="620" y1="31"/>
      <line y2="32" fill="none" x1="619" clip-path="url(#clipPath1)" x2="621" y1="32"/>
      <line y2="93" fill="none" x1="620" clip-path="url(#clipPath1)" x2="620" y1="91"/>
      <line y2="92" fill="none" x1="619" clip-path="url(#clipPath1)" x2="621" y1="92"/>
      <line y2="153" fill="none" x1="620" clip-path="url(#clipPath1)" x2="620" y1="151"/>
      <line y2="152" fill="none" x1="619" clip-path="url(#clipPath1)" x2="621" y1="152"/>
      <line y2="213" fill="none" x1="620" clip-path="url(#clipPath1)" x2="620" y1="211"/>
      <line y2="212" fill="none" x1="619" clip-path="url(#clipPath1)" x2="621" y1="212"/>
      <line y2="273" fill="none" x1="620" clip-path="url(#clipPath1)" x2="620" y1="271"/>
      <line y2="272" fill="none" x1="619" clip-path="url(#clipPath1)" x2="621" y1="272"/>
      <line y2="333" fill="none" x1="620" clip-path="url(#clipPath1)" x2="620" y1="331"/>
      <line y2="332" fill="none" x1="619" clip-path="url(#clipPath1)" x2="621" y1="332"/>
      <line y2="393" fill="none" x1="620" clip-path="url(#clipPath1)" x2="620" y1="391"/>
      <line y2="392" fill="none" x1="619" clip-path="url(#clipPath1)" x2="621" y1="392"/>
      <line y2="453" fill="none" x1="620" clip-path="url(#clipPath1)" x2="620" y1="451"/>
      <line y2="452" fill="none" x1="619" clip-path="url(#clipPath1)" x2="621" y1="452"/>
      <line y2="513" fill="none" x1="620" clip-path="url(#clipPath1)" x2="620" y1="511"/>
      <line y2="512" fill="none" x1="619" clip-path="url(#clipPath1)" x2="621" y1="512"/>
      <line y2="-87" fill="none" x1="680" clip-path="url(#clipPath1)" x2="680" y1="-89"/>
      <line y2="-88" fill="none" x1="679" clip-path="url(#clipPath1)" x2="681" y1="-88"/>
      <line y2="-27" fill="none" x1="680" clip-path="url(#clipPath1)" x2="680" y1="-29"/>
      <line y2="-28" fill="none" x1="679" clip-path="url(#clipPath1)" x2="681" y1="-28"/>
      <line y2="33" fill="none" x1="680" clip-path="url(#clipPath1)" x2="680" y1="31"/>
      <line y2="32" fill="none" x1="679" clip-path="url(#clipPath1)" x2="681" y1="32"/>
      <line y2="93" fill="none" x1="680" clip-path="url(#clipPath1)" x2="680" y1="91"/>
      <line y2="92" fill="none" x1="679" clip-path="url(#clipPath1)" x2="681" y1="92"/>
      <line y2="153" fill="none" x1="680" clip-path="url(#clipPath1)" x2="680" y1="151"/>
      <line y2="152" fill="none" x1="679" clip-path="url(#clipPath1)" x2="681" y1="152"/>
      <line y2="213" fill="none" x1="680" clip-path="url(#clipPath1)" x2="680" y1="211"/>
      <line y2="212" fill="none" x1="679" clip-path="url(#clipPath1)" x2="681" y1="212"/>
      <line y2="273" fill="none" x1="680" clip-path="url(#clipPath1)" x2="680" y1="271"/>
      <line y2="272" fill="none" x1="679" clip-path="url(#clipPath1)" x2="681" y1="272"/>
      <line y2="333" fill="none" x1="680" clip-path="url(#clipPath1)" x2="680" y1="331"/>
      <line y2="332" fill="none" x1="679" clip-path="url(#clipPath1)" x2="681" y1="332"/>
      <line y2="393" fill="none" x1="680" clip-path="url(#clipPath1)" x2="680" y1="391"/>
      <line y2="392" fill="none" x1="679" clip-path="url(#clipPath1)" x2="681" y1="392"/>
      <line y2="453" fill="none" x1="680" clip-path="url(#clipPath1)" x2="680" y1="451"/>
      <line y2="452" fill="none" x1="679" clip-path="url(#clipPath1)" x2="681" y1="452"/>
      <line y2="513" fill="none" x1="680" clip-path="url(#clipPath1)" x2="680" y1="511"/>
      <line y2="512" fill="none" x1="679" clip-path="url(#clipPath1)" x2="681" y1="512"/>
      <line y2="-87" fill="none" x1="740" clip-path="url(#clipPath1)" x2="740" y1="-89"/>
      <line y2="-88" fill="none" x1="739" clip-path="url(#clipPath1)" x2="741" y1="-88"/>
      <line y2="-27" fill="none" x1="740" clip-path="url(#clipPath1)" x2="740" y1="-29"/>
      <line y2="-28" fill="none" x1="739" clip-path="url(#clipPath1)" x2="741" y1="-28"/>
      <line y2="33" fill="none" x1="740" clip-path="url(#clipPath1)" x2="740" y1="31"/>
      <line y2="32" fill="none" x1="739" clip-path="url(#clipPath1)" x2="741" y1="32"/>
      <line y2="93" fill="none" x1="740" clip-path="url(#clipPath1)" x2="740" y1="91"/>
      <line y2="92" fill="none" x1="739" clip-path="url(#clipPath1)" x2="741" y1="92"/>
      <line y2="153" fill="none" x1="740" clip-path="url(#clipPath1)" x2="740" y1="151"/>
      <line y2="152" fill="none" x1="739" clip-path="url(#clipPath1)" x2="741" y1="152"/>
      <line y2="213" fill="none" x1="740" clip-path="url(#clipPath1)" x2="740" y1="211"/>
      <line y2="212" fill="none" x1="739" clip-path="url(#clipPath1)" x2="741" y1="212"/>
      <line y2="273" fill="none" x1="740" clip-path="url(#clipPath1)" x2="740" y1="271"/>
      <line y2="272" fill="none" x1="739" clip-path="url(#clipPath1)" x2="741" y1="272"/>
      <line y2="333" fill="none" x1="740" clip-path="url(#clipPath1)" x2="740" y1="331"/>
      <line y2="332" fill="none" x1="739" clip-path="url(#clipPath1)" x2="741" y1="332"/>
      <line y2="393" fill="none" x1="740" clip-path="url(#clipPath1)" x2="740" y1="391"/>
      <line y2="392" fill="none" x1="739" clip-path="url(#clipPath1)" x2="741" y1="392"/>
      <line y2="453" fill="none" x1="740" clip-path="url(#clipPath1)" x2="740" y1="451"/>
      <line y2="452" fill="none" x1="739" clip-path="url(#clipPath1)" x2="741" y1="452"/>
      <line y2="513" fill="none" x1="740" clip-path="url(#clipPath1)" x2="740" y1="511"/>
      <line y2="512" fill="none" x1="739" clip-path="url(#clipPath1)" x2="741" y1="512"/>
      <line y2="-87" fill="none" x1="800" clip-path="url(#clipPath1)" x2="800" y1="-89"/>
      <line y2="-88" fill="none" x1="799" clip-path="url(#clipPath1)" x2="801" y1="-88"/>
      <line y2="-27" fill="none" x1="800" clip-path="url(#clipPath1)" x2="800" y1="-29"/>
      <line y2="-28" fill="none" x1="799" clip-path="url(#clipPath1)" x2="801" y1="-28"/>
      <line y2="33" fill="none" x1="800" clip-path="url(#clipPath1)" x2="800" y1="31"/>
      <line y2="32" fill="none" x1="799" clip-path="url(#clipPath1)" x2="801" y1="32"/>
      <line y2="93" fill="none" x1="800" clip-path="url(#clipPath1)" x2="800" y1="91"/>
      <line y2="92" fill="none" x1="799" clip-path="url(#clipPath1)" x2="801" y1="92"/>
      <line y2="153" fill="none" x1="800" clip-path="url(#clipPath1)" x2="800" y1="151"/>
      <line y2="152" fill="none" x1="799" clip-path="url(#clipPath1)" x2="801" y1="152"/>
      <line y2="213" fill="none" x1="800" clip-path="url(#clipPath1)" x2="800" y1="211"/>
      <line y2="212" fill="none" x1="799" clip-path="url(#clipPath1)" x2="801" y1="212"/>
      <line y2="273" fill="none" x1="800" clip-path="url(#clipPath1)" x2="800" y1="271"/>
      <line y2="272" fill="none" x1="799" clip-path="url(#clipPath1)" x2="801" y1="272"/>
      <line y2="333" fill="none" x1="800" clip-path="url(#clipPath1)" x2="800" y1="331"/>
      <line y2="332" fill="none" x1="799" clip-path="url(#clipPath1)" x2="801" y1="332"/>
      <line y2="393" fill="none" x1="800" clip-path="url(#clipPath1)" x2="800" y1="391"/>
      <line y2="392" fill="none" x1="799" clip-path="url(#clipPath1)" x2="801" y1="392"/>
      <line y2="453" fill="none" x1="800" clip-path="url(#clipPath1)" x2="800" y1="451"/>
      <line y2="452" fill="none" x1="799" clip-path="url(#clipPath1)" x2="801" y1="452"/>
      <line y2="513" fill="none" x1="800" clip-path="url(#clipPath1)" x2="800" y1="511"/>
      <line y2="512" fill="none" x1="799" clip-path="url(#clipPath1)" x2="801" y1="512"/>
      <line y2="-87" fill="none" x1="860" clip-path="url(#clipPath1)" x2="860" y1="-89"/>
      <line y2="-88" fill="none" x1="859" clip-path="url(#clipPath1)" x2="861" y1="-88"/>
      <line y2="-27" fill="none" x1="860" clip-path="url(#clipPath1)" x2="860" y1="-29"/>
      <line y2="-28" fill="none" x1="859" clip-path="url(#clipPath1)" x2="861" y1="-28"/>
      <line y2="33" fill="none" x1="860" clip-path="url(#clipPath1)" x2="860" y1="31"/>
      <line y2="32" fill="none" x1="859" clip-path="url(#clipPath1)" x2="861" y1="32"/>
      <line y2="93" fill="none" x1="860" clip-path="url(#clipPath1)" x2="860" y1="91"/>
      <line y2="92" fill="none" x1="859" clip-path="url(#clipPath1)" x2="861" y1="92"/>
      <line y2="153" fill="none" x1="860" clip-path="url(#clipPath1)" x2="860" y1="151"/>
      <line y2="152" fill="none" x1="859" clip-path="url(#clipPath1)" x2="861" y1="152"/>
      <line y2="213" fill="none" x1="860" clip-path="url(#clipPath1)" x2="860" y1="211"/>
      <line y2="212" fill="none" x1="859" clip-path="url(#clipPath1)" x2="861" y1="212"/>
      <line y2="273" fill="none" x1="860" clip-path="url(#clipPath1)" x2="860" y1="271"/>
      <line y2="272" fill="none" x1="859" clip-path="url(#clipPath1)" x2="861" y1="272"/>
      <line y2="333" fill="none" x1="860" clip-path="url(#clipPath1)" x2="860" y1="331"/>
      <line y2="332" fill="none" x1="859" clip-path="url(#clipPath1)" x2="861" y1="332"/>
      <line y2="393" fill="none" x1="860" clip-path="url(#clipPath1)" x2="860" y1="391"/>
      <line y2="392" fill="none" x1="859" clip-path="url(#clipPath1)" x2="861" y1="392"/>
      <line y2="453" fill="none" x1="860" clip-path="url(#clipPath1)" x2="860" y1="451"/>
      <line y2="452" fill="none" x1="859" clip-path="url(#clipPath1)" x2="861" y1="452"/>
      <line y2="513" fill="none" x1="860" clip-path="url(#clipPath1)" x2="860" y1="511"/>
      <line y2="512" fill="none" x1="859" clip-path="url(#clipPath1)" x2="861" y1="512"/>
      <line y2="-87" fill="none" x1="920" clip-path="url(#clipPath1)" x2="920" y1="-89"/>
      <line y2="-88" fill="none" x1="919" clip-path="url(#clipPath1)" x2="921" y1="-88"/>
      <line y2="-27" fill="none" x1="920" clip-path="url(#clipPath1)" x2="920" y1="-29"/>
      <line y2="-28" fill="none" x1="919" clip-path="url(#clipPath1)" x2="921" y1="-28"/>
      <line y2="33" fill="none" x1="920" clip-path="url(#clipPath1)" x2="920" y1="31"/>
      <line y2="32" fill="none" x1="919" clip-path="url(#clipPath1)" x2="921" y1="32"/>
      <line y2="93" fill="none" x1="920" clip-path="url(#clipPath1)" x2="920" y1="91"/>
      <line y2="92" fill="none" x1="919" clip-path="url(#clipPath1)" x2="921" y1="92"/>
      <line y2="153" fill="none" x1="920" clip-path="url(#clipPath1)" x2="920" y1="151"/>
      <line y2="152" fill="none" x1="919" clip-path="url(#clipPath1)" x2="921" y1="152"/>
      <line y2="213" fill="none" x1="920" clip-path="url(#clipPath1)" x2="920" y1="211"/>
      <line y2="212" fill="none" x1="919" clip-path="url(#clipPath1)" x2="921" y1="212"/>
      <line y2="273" fill="none" x1="920" clip-path="url(#clipPath1)" x2="920" y1="271"/>
      <line y2="272" fill="none" x1="919" clip-path="url(#clipPath1)" x2="921" y1="272"/>
      <line y2="333" fill="none" x1="920" clip-path="url(#clipPath1)" x2="920" y1="331"/>
      <line y2="332" fill="none" x1="919" clip-path="url(#clipPath1)" x2="921" y1="332"/>
      <line y2="393" fill="none" x1="920" clip-path="url(#clipPath1)" x2="920" y1="391"/>
      <line y2="392" fill="none" x1="919" clip-path="url(#clipPath1)" x2="921" y1="392"/>
      <line y2="453" fill="none" x1="920" clip-path="url(#clipPath1)" x2="920" y1="451"/>
      <line y2="452" fill="none" x1="919" clip-path="url(#clipPath1)" x2="921" y1="452"/>
      <line y2="513" fill="none" x1="920" clip-path="url(#clipPath1)" x2="920" y1="511"/>
      <line y2="512" fill="none" x1="919" clip-path="url(#clipPath1)" x2="921" y1="512"/>
      <line y2="-87" fill="none" x1="980" clip-path="url(#clipPath1)" x2="980" y1="-89"/>
      <line y2="-88" fill="none" x1="979" clip-path="url(#clipPath1)" x2="981" y1="-88"/>
      <line y2="-27" fill="none" x1="980" clip-path="url(#clipPath1)" x2="980" y1="-29"/>
      <line y2="-28" fill="none" x1="979" clip-path="url(#clipPath1)" x2="981" y1="-28"/>
      <line y2="33" fill="none" x1="980" clip-path="url(#clipPath1)" x2="980" y1="31"/>
      <line y2="32" fill="none" x1="979" clip-path="url(#clipPath1)" x2="981" y1="32"/>
      <line y2="93" fill="none" x1="980" clip-path="url(#clipPath1)" x2="980" y1="91"/>
      <line y2="92" fill="none" x1="979" clip-path="url(#clipPath1)" x2="981" y1="92"/>
      <line y2="153" fill="none" x1="980" clip-path="url(#clipPath1)" x2="980" y1="151"/>
      <line y2="152" fill="none" x1="979" clip-path="url(#clipPath1)" x2="981" y1="152"/>
      <line y2="213" fill="none" x1="980" clip-path="url(#clipPath1)" x2="980" y1="211"/>
      <line y2="212" fill="none" x1="979" clip-path="url(#clipPath1)" x2="981" y1="212"/>
      <line y2="273" fill="none" x1="980" clip-path="url(#clipPath1)" x2="980" y1="271"/>
      <line y2="272" fill="none" x1="979" clip-path="url(#clipPath1)" x2="981" y1="272"/>
      <line y2="333" fill="none" x1="980" clip-path="url(#clipPath1)" x2="980" y1="331"/>
      <line y2="332" fill="none" x1="979" clip-path="url(#clipPath1)" x2="981" y1="332"/>
      <line y2="393" fill="none" x1="980" clip-path="url(#clipPath1)" x2="980" y1="391"/>
      <line y2="392" fill="none" x1="979" clip-path="url(#clipPath1)" x2="981" y1="392"/>
      <line y2="453" fill="none" x1="980" clip-path="url(#clipPath1)" x2="980" y1="451"/>
      <line y2="452" fill="none" x1="979" clip-path="url(#clipPath1)" x2="981" y1="452"/>
      <line y2="513" fill="none" x1="980" clip-path="url(#clipPath1)" x2="980" y1="511"/>
      <line y2="512" fill="none" x1="979" clip-path="url(#clipPath1)" x2="981" y1="512"/>
      <line y2="-87" fill="none" x1="1040" clip-path="url(#clipPath1)" x2="1040" y1="-89"/>
      <line y2="-88" fill="none" x1="1039" clip-path="url(#clipPath1)" x2="1041" y1="-88"/>
      <line y2="-27" fill="none" x1="1040" clip-path="url(#clipPath1)" x2="1040" y1="-29"/>
      <line y2="-28" fill="none" x1="1039" clip-path="url(#clipPath1)" x2="1041" y1="-28"/>
      <line y2="33" fill="none" x1="1040" clip-path="url(#clipPath1)" x2="1040" y1="31"/>
      <line y2="32" fill="none" x1="1039" clip-path="url(#clipPath1)" x2="1041" y1="32"/>
      <line y2="93" fill="none" x1="1040" clip-path="url(#clipPath1)" x2="1040" y1="91"/>
      <line y2="92" fill="none" x1="1039" clip-path="url(#clipPath1)" x2="1041" y1="92"/>
      <line y2="153" fill="none" x1="1040" clip-path="url(#clipPath1)" x2="1040" y1="151"/>
      <line y2="152" fill="none" x1="1039" clip-path="url(#clipPath1)" x2="1041" y1="152"/>
      <line y2="213" fill="none" x1="1040" clip-path="url(#clipPath1)" x2="1040" y1="211"/>
      <line y2="212" fill="none" x1="1039" clip-path="url(#clipPath1)" x2="1041" y1="212"/>
      <line y2="273" fill="none" x1="1040" clip-path="url(#clipPath1)" x2="1040" y1="271"/>
      <line y2="272" fill="none" x1="1039" clip-path="url(#clipPath1)" x2="1041" y1="272"/>
      <line y2="333" fill="none" x1="1040" clip-path="url(#clipPath1)" x2="1040" y1="331"/>
      <line y2="332" fill="none" x1="1039" clip-path="url(#clipPath1)" x2="1041" y1="332"/>
      <line y2="393" fill="none" x1="1040" clip-path="url(#clipPath1)" x2="1040" y1="391"/>
      <line y2="392" fill="none" x1="1039" clip-path="url(#clipPath1)" x2="1041" y1="392"/>
      <line y2="453" fill="none" x1="1040" clip-path="url(#clipPath1)" x2="1040" y1="451"/>
      <line y2="452" fill="none" x1="1039" clip-path="url(#clipPath1)" x2="1041" y1="452"/>
      <line y2="513" fill="none" x1="1040" clip-path="url(#clipPath1)" x2="1040" y1="511"/>
      <line y2="512" fill="none" x1="1039" clip-path="url(#clipPath1)" x2="1041" y1="512"/>
      <line y2="-87" fill="none" x1="1100" clip-path="url(#clipPath1)" x2="1100" y1="-89"/>
      <line y2="-88" fill="none" x1="1099" clip-path="url(#clipPath1)" x2="1101" y1="-88"/>
      <line y2="-27" fill="none" x1="1100" clip-path="url(#clipPath1)" x2="1100" y1="-29"/>
      <line y2="-28" fill="none" x1="1099" clip-path="url(#clipPath1)" x2="1101" y1="-28"/>
      <line y2="33" fill="none" x1="1100" clip-path="url(#clipPath1)" x2="1100" y1="31"/>
      <line y2="32" fill="none" x1="1099" clip-path="url(#clipPath1)" x2="1101" y1="32"/>
      <line y2="93" fill="none" x1="1100" clip-path="url(#clipPath1)" x2="1100" y1="91"/>
      <line y2="92" fill="none" x1="1099" clip-path="url(#clipPath1)" x2="1101" y1="92"/>
      <line y2="153" fill="none" x1="1100" clip-path="url(#clipPath1)" x2="1100" y1="151"/>
      <line y2="152" fill="none" x1="1099" clip-path="url(#clipPath1)" x2="1101" y1="152"/>
      <line y2="213" fill="none" x1="1100" clip-path="url(#clipPath1)" x2="1100" y1="211"/>
      <line y2="212" fill="none" x1="1099" clip-path="url(#clipPath1)" x2="1101" y1="212"/>
      <line y2="273" fill="none" x1="1100" clip-path="url(#clipPath1)" x2="1100" y1="271"/>
      <line y2="272" fill="none" x1="1099" clip-path="url(#clipPath1)" x2="1101" y1="272"/>
      <line y2="333" fill="none" x1="1100" clip-path="url(#clipPath1)" x2="1100" y1="331"/>
      <line y2="332" fill="none" x1="1099" clip-path="url(#clipPath1)" x2="1101" y1="332"/>
      <line y2="393" fill="none" x1="1100" clip-path="url(#clipPath1)" x2="1100" y1="391"/>
      <line y2="392" fill="none" x1="1099" clip-path="url(#clipPath1)" x2="1101" y1="392"/>
      <line y2="453" fill="none" x1="1100" clip-path="url(#clipPath1)" x2="1100" y1="451"/>
      <line y2="452" fill="none" x1="1099" clip-path="url(#clipPath1)" x2="1101" y1="452"/>
      <line y2="513" fill="none" x1="1100" clip-path="url(#clipPath1)" x2="1100" y1="511"/>
      <line y2="512" fill="none" x1="1099" clip-path="url(#clipPath1)" x2="1101" y1="512"/>
    </g>
    <g fill="rgb(255,204,0)" text-rendering="geometricPrecision" shape-rendering="geometricPrecision" transform="matrix(2,0,0,2,-700,-1648)" stroke="rgb(255,204,0)">
      <rect x="372.77" width="231" height="30" y="889.32" clip-path="url(#clipPath2)" stroke="none"/>
    </g>
    <g text-rendering="geometricPrecision" stroke-miterlimit="1.45" shape-rendering="geometricPrecision" transform="matrix(2,0,0,2,-700,-1648)" stroke-linecap="butt">
      <rect fill="none" x="372.77" width="231" height="30" y="889.32" clip-path="url(#clipPath2)"/>
      <text x="386.7739" xml:space="preserve" y="908.4743" clip-path="url(#clipPath2)" font-family="sans-serif" stroke="none">model.py:Model(torch.nn.Module)</text>
    </g>
    <g fill="rgb(255,204,0)" text-rendering="geometricPrecision" shape-rendering="geometricPrecision" transform="matrix(2,0,0,2,-700,-1648)" stroke="rgb(255,204,0)">
      <rect x="416.45" width="421.52" height="30" y="1016.04" clip-path="url(#clipPath2)" stroke="none"/>
    </g>
    <g text-rendering="geometricPrecision" stroke-miterlimit="1.45" shape-rendering="geometricPrecision" transform="matrix(2,0,0,2,-700,-1648)" stroke-linecap="butt">
      <rect fill="none" x="416.45" width="421.52" height="30" y="1016.04" clip-path="url(#clipPath2)"/>
      <text x="427.5928" xml:space="preserve" y="1035.1943" clip-path="url(#clipPath2)" font-family="sans-serif" stroke="none">run.py:run(BaseModel, get_train_dataloader, get_eval_dataloader)</text>
    </g>
    <g fill="rgb(255,204,0)" text-rendering="geometricPrecision" shape-rendering="geometricPrecision" transform="matrix(2,0,0,2,-700,-1648)" stroke="rgb(255,204,0)">
      <rect x="644.9" width="243" height="49.84" y="889.32" clip-path="url(#clipPath2)" stroke="none"/>
    </g>
    <g text-rendering="geometricPrecision" stroke-miterlimit="1.45" shape-rendering="geometricPrecision" transform="matrix(2,0,0,2,-700,-1648)" stroke-linecap="butt">
      <rect fill="none" x="644.9" width="243" height="49.84" y="889.32" clip-path="url(#clipPath2)"/>
      <text x="652.0016" xml:space="preserve" y="904.4255" clip-path="url(#clipPath2)" font-family="sans-serif" stroke="none">data.py:get_train_dataloader(params)</text>
      <text x="652.0016" xml:space="preserve" y="918.3943" clip-path="url(#clipPath2)" font-family="sans-serif" stroke="none"> </text>
      <text x="652.0016" xml:space="preserve" y="932.363" clip-path="url(#clipPath2)" font-family="sans-serif" stroke="none">data.py:get_eval_dataloader(params)</text>
    </g>
    <g fill="rgb(255,204,0)" text-rendering="geometricPrecision" shape-rendering="geometricPrecision" transform="matrix(2,0,0,2,-700,-1648)" stroke="rgb(255,204,0)">
      <rect x="554.21" width="146" height="30" y="832.8" clip-path="url(#clipPath2)" stroke="none"/>
    </g>
    <g text-rendering="geometricPrecision" stroke-miterlimit="1.45" shape-rendering="geometricPrecision" transform="matrix(2,0,0,2,-700,-1648)" stroke-linecap="butt">
      <rect fill="none" x="554.21" width="146" height="30" y="832.8" clip-path="url(#clipPath2)"/>
      <text x="564.4561" xml:space="preserve" y="851.9543" clip-path="url(#clipPath2)" font-family="sans-serif" stroke="none">configs/params.yaml</text>
    </g>
    <g fill="rgb(255,204,0)" text-rendering="geometricPrecision" shape-rendering="geometricPrecision" transform="matrix(2,0,0,2,-700,-1648)" stroke="rgb(255,204,0)">
      <rect x="358.27" width="260" height="30" y="952.68" clip-path="url(#clipPath2)" stroke="none"/>
    </g>
    <g text-rendering="geometricPrecision" stroke-miterlimit="1.45" shape-rendering="geometricPrecision" transform="matrix(2,0,0,2,-700,-1648)" stroke-linecap="butt">
      <rect fill="none" x="358.27" width="260" height="30" y="952.68" clip-path="url(#clipPath2)"/>
      <text x="364.2944" xml:space="preserve" y="971.8343" clip-path="url(#clipPath2)" font-family="sans-serif" stroke="none">model.py:BaseModel(PyTorchBaseModel)</text>
      <path fill="none" d="M766.4 939.16 L766.4 1008.03" clip-path="url(#clipPath2)"/>
      <path d="M766.4 1016.03 L771.4 1004.03 L766.4 1007.03 L761.4 1004.03 Z" clip-path="url(#clipPath2)" stroke="none"/>
      <path fill="none" d="M590.3363 862.8 L532.554 886.3055" clip-path="url(#clipPath2)"/>
      <path d="M525.1437 889.32 L538.1432 889.4297 L533.4803 885.9287 L534.3751 880.1669 Z" clip-path="url(#clipPath2)" stroke="none"/>
      <text x="456.8403" xml:space="preserve" y="873.9203" clip-path="url(#clipPath2)" font-family="sans-serif" stroke="none">params: dict</text>
      <path fill="none" d="M658.6346 862.8 L706.9736 885.8738" clip-path="url(#clipPath2)"/>
      <path d="M714.1932 889.32 L705.5176 879.6384 L706.0711 885.4431 L701.2098 888.663 Z" clip-path="url(#clipPath2)" stroke="none"/>
      <text x="709.5233" xml:space="preserve" y="873.5674" clip-path="url(#clipPath2)" font-family="sans-serif" stroke="none">params: dict</text>
      <path fill="none" d="M488.27 919.32 L488.27 944.68" clip-path="url(#clipPath2)"/>
      <path d="M488.27 952.68 L493.27 940.68 L488.27 943.68 L483.27 940.68 Z" clip-path="url(#clipPath2)" stroke="none"/>
      <path fill="none" d="M488.27 982.68 L488.27 1008.01" clip-path="url(#clipPath2)"/>
      <path d="M488.27 1016.01 L493.27 1004.01 L488.27 1007.01 L483.27 1004.01 Z" clip-path="url(#clipPath2)" stroke="none"/>
    </g>
  </g>
</svg>
